<?xml version="1.0" encoding="UTF-8"?>
<svg version="1.1" xmlns="http://www.w3.org/2000/svg" width="512" height="512">
<path d="M0 0 C1.02609375 0.20399414 2.0521875 0.40798828 3.109375 0.61816406 C39.26872114 7.97641963 74.26095381 21.85549114 104 44 C104.55800293 44.40927734 105.11600586 44.81855469 105.69091797 45.24023438 C123.25303937 58.15830058 139.59350443 72.76307713 153 90 C153.49113281 90.62003906 153.98226563 91.24007812 154.48828125 91.87890625 C180.54111709 124.77774274 197.74245546 162.22483563 206.25 203.3125 C206.40130371 204.03928955 206.55260742 204.7660791 206.70849609 205.51489258 C209.6892508 220.85146498 210.37336955 236.04056138 210.3125 251.625 C210.30976578 253.07983292 210.30976578 253.07983292 210.30697632 254.5640564 C210.26158309 268.91556055 209.7562347 282.87942918 207 297 C206.83902832 297.89702637 206.67805664 298.79405273 206.51220703 299.71826172 C198.72867458 342.73330703 179.40888714 383.76253963 151 417 C150.0643343 418.1204513 149.12948196 419.24158217 148.1953125 420.36328125 C138.37529418 432.08119145 128.01922807 442.51776468 116 452 C115.28328125 452.60714844 114.5665625 453.21429688 113.828125 453.83984375 C82.85997681 479.8113581 44.91961284 496.43571712 5.625 504.8125 C4.71169922 505.00755127 3.79839844 505.20260254 2.85742188 505.40356445 C-12.95919084 508.58005817 -28.53317252 509.37688866 -44.625 509.3125 C-45.59555328 509.31034485 -46.56610657 509.3081897 -47.56607056 509.30596924 C-61.89309899 509.25493771 -75.92356913 508.91209434 -90 506 C-91.46663086 505.70198486 -91.46663086 505.70198486 -92.96289062 505.39794922 C-115.9080138 500.59673614 -137.94991328 493.32523017 -159 483 C-159.67321289 482.67032227 -160.34642578 482.34064453 -161.04003906 482.00097656 C-175.97225566 474.583814 -189.91258623 465.30285765 -203 455 C-203.89847656 454.29488281 -204.79695313 453.58976562 -205.72265625 452.86328125 C-213.13802879 446.92031361 -220.10776932 440.53416233 -227 434 C-228.13115234 432.93265625 -228.13115234 432.93265625 -229.28515625 431.84375 C-234.67408676 426.61552318 -239.3320231 420.87090774 -244 415 C-244.87554924 413.92646889 -245.75187417 412.85357003 -246.62890625 411.78125 C-276.508514 374.92562919 -294.97649323 329.96671132 -301 283 C-301.08732895 282.32771866 -301.1746579 281.65543732 -301.26463318 280.96278381 C-301.93879531 275.39626596 -302.17386768 269.90900467 -302.203125 264.3046875 C-302.21018463 263.40282211 -302.21724426 262.50095673 -302.22451782 261.57176208 C-302.45366283 223.69425519 -302.45366283 223.69425519 -299 207 C-298.80132324 206.02224609 -298.60264648 205.04449219 -298.39794922 204.03710938 C-289.04096085 159.31981666 -269.63721985 118.10134015 -239 84 C-238.29399658 83.21157715 -238.29399658 83.21157715 -237.57373047 82.40722656 C-234.42379631 78.89835873 -231.22853772 75.43666672 -228 72 C-227.38640625 71.34386719 -226.7728125 70.68773438 -226.140625 70.01171875 C-222.03934557 65.76396506 -217.54275287 62.07641046 -212.94140625 58.3828125 C-210.98894799 56.80113981 -209.05866854 55.19166873 -207.15234375 53.5546875 C-174.32888069 25.36980266 -132.31415292 7.5932888 -90 0 C-89.16871582 -0.16226074 -88.33743164 -0.32452148 -87.48095703 -0.49169922 C-59.89253452 -5.7613979 -27.51258613 -5.60848867 0 0 Z M-67.5 97.3125 C-74.46041464 106.61358505 -75.15567501 116.21783228 -75.11352539 127.43334961 C-75.11374443 128.97107025 -75.11374443 128.97107025 -75.1139679 130.53985596 C-75.11327413 133.91070714 -75.10550689 137.28150228 -75.09765625 140.65234375 C-75.09579017 142.99646474 -75.09436716 145.34058612 -75.09336853 147.68470764 C-75.08955836 153.84137049 -75.0797409 159.99800959 -75.06866455 166.15466309 C-75.05841815 172.44229816 -75.053864 178.7299371 -75.04882812 185.01757812 C-75.03811727 197.34506249 -75.02105889 209.67252927 -75 222 C-76.31829803 221.99555878 -77.63659607 221.99111755 -78.99484253 221.98654175 C-91.44157612 221.94593158 -103.8882962 221.91598483 -116.3350811 221.89637566 C-122.73350672 221.88595538 -129.13187869 221.87182821 -135.53027344 221.84912109 C-141.70943858 221.82733017 -147.88855223 221.81541817 -154.06775284 221.81024551 C-156.42075536 221.80656098 -158.77375519 221.79936607 -161.12673569 221.78853989 C-164.43204505 221.77394203 -167.73714386 221.77202554 -171.04248047 221.77294922 C-172.48934486 221.76216339 -172.48934486 221.76216339 -173.96543884 221.75115967 C-184.53783217 221.78295949 -193.51953578 223.36502541 -202 230 C-204.3876054 232.47808308 -206.23753276 235.05092115 -208 238 C-208.61875 239.03125 -209.2375 240.0625 -209.875 241.125 C-212.39478595 247.82915778 -212.09654037 255.65205229 -209.8984375 262.36328125 C-205.65857233 271.46652117 -200.46895793 276.23107644 -191.40625 280.23828125 C-184.86558218 282.30878486 -178.1721133 282.13855049 -171.38305664 282.11352539 C-169.81607529 282.11374443 -169.81607529 282.11374443 -168.21743774 282.1139679 C-164.78165576 282.11327401 -161.34592871 282.10550616 -157.91015625 282.09765625 C-155.52119476 282.09579021 -153.13223288 282.09436718 -150.74327087 282.09336853 C-144.46824072 282.089558 -138.19323387 282.07974023 -131.91821289 282.06866455 C-125.50993159 282.05841893 -119.10164651 282.05386416 -112.69335938 282.04882812 C-100.12889633 282.03811663 -87.56444941 282.02125117 -75 282 C-75.00444122 283.31829803 -75.00888245 284.63659607 -75.01345825 285.99484253 C-75.05406842 298.44157612 -75.08401517 310.8882962 -75.10362434 323.3350811 C-75.11404462 329.73350672 -75.12817179 336.13187869 -75.15087891 342.53027344 C-75.17266983 348.70943858 -75.18458183 354.88855223 -75.18975449 361.06775284 C-75.19343902 363.42075536 -75.20063393 365.77375519 -75.21146011 368.12673569 C-75.22605797 371.43204505 -75.22797446 374.73714386 -75.22705078 378.04248047 C-75.23424133 379.00705673 -75.24143188 379.971633 -75.24884033 380.96543884 C-75.21704051 391.53783217 -73.63497459 400.51953578 -67 409 C-64.52191692 411.3876054 -61.94907885 413.23753276 -59 415 C-57.96875 415.61875 -56.9375 416.2375 -55.875 416.875 C-49.17084222 419.39478595 -41.34794771 419.09654037 -34.63671875 416.8984375 C-25.53347883 412.65857233 -20.76892356 407.46895793 -16.76171875 398.40625 C-14.69121514 391.86558218 -14.86144951 385.1721133 -14.88647461 378.38305664 C-14.88625557 376.81607529 -14.88625557 376.81607529 -14.8860321 375.21743774 C-14.88672599 371.78165576 -14.89449384 368.34592871 -14.90234375 364.91015625 C-14.90420979 362.52119476 -14.90563282 360.13223288 -14.90663147 357.74327087 C-14.910442 351.46824072 -14.92025977 345.19323387 -14.93133545 338.91821289 C-14.94158107 332.50993159 -14.94613584 326.10164651 -14.95117188 319.69335938 C-14.96188337 307.12889633 -14.97874883 294.56444941 -15 282 C-13.70675812 282.00444122 -12.41351624 282.00888245 -11.08108521 282.01345825 C1.13018976 282.0540717 13.34145096 282.08401674 25.55277824 282.10362434 C31.8301361 282.11404379 38.10743925 282.12816944 44.38476562 282.15087891 C50.44722148 282.17267279 56.50962484 282.18458245 62.57211685 282.18975449 C64.88046214 282.19343849 67.1888047 282.20063236 69.49712753 282.21146011 C72.74017202 282.22606194 75.98300194 282.2279743 79.22607422 282.22705078 C80.6448864 282.23783661 80.6448864 282.23783661 82.09236145 282.24884033 C92.61395784 282.21659973 101.56414865 280.60007023 110 274 C112.3876054 271.52191692 114.23753276 268.94907885 116 266 C116.61875 264.96875 117.2375 263.9375 117.875 262.875 C120.39478595 256.17084222 120.09654037 248.34794771 117.8984375 241.63671875 C113.65857233 232.53347883 108.46895793 227.76892356 99.40625 223.76171875 C92.92329387 221.70948426 86.29611802 221.86118425 79.56665039 221.88647461 C78.5415033 221.88632858 77.5163562 221.88618256 76.46014404 221.8860321 C73.08929286 221.88672587 69.71849772 221.89449311 66.34765625 221.90234375 C64.00353526 221.90420983 61.65941388 221.90563284 59.31529236 221.90663147 C53.15862951 221.91044164 47.00199041 221.9202591 40.84533691 221.93133545 C34.55770184 221.94158185 28.2700629 221.946136 21.98242188 221.95117188 C9.65493751 221.96188273 -2.67252927 221.97894111 -15 222 C-14.99555878 220.70675812 -14.99111755 219.41351624 -14.98654175 218.08108521 C-14.9459283 205.86981024 -14.91598326 193.65854904 -14.89637566 181.44722176 C-14.88595621 175.1698639 -14.87183056 168.89256075 -14.84912109 162.61523438 C-14.82732721 156.55277852 -14.81541755 150.49037516 -14.81024551 144.42788315 C-14.80656151 142.11953786 -14.79936764 139.8111953 -14.78853989 137.50287247 C-14.77393806 134.25982798 -14.7720257 131.01699806 -14.77294922 127.77392578 C-14.76216339 126.3551136 -14.76216339 126.3551136 -14.75115967 124.90763855 C-14.78340027 114.38604216 -16.39992977 105.43585135 -23 97 C-25.47808308 94.6123946 -28.05092115 92.76246724 -31 91 C-32.03125 90.38125 -33.0625 89.7625 -34.125 89.125 C-45.76797782 84.74893772 -59.12716924 88.35357109 -67.5 97.3125 Z " fill="#000000" transform="translate(302,3)"/>
</svg>
