<?xml version="1.0" encoding="UTF-8"?>
<svg version="1.1" xmlns="http://www.w3.org/2000/svg" width="512" height="512">
<path d="M0 0 C21.76077277 -1.0421826 45.0001245 9.09365877 64.7890625 16.77734375 C65.91417236 17.21175781 67.03928223 17.64617188 68.19848633 18.09375 C83.76255354 24.28849534 97.86748129 31.21416833 104.9765625 47.21484375 C108.45575819 56.1843369 108.47131629 65.14467707 108.42260742 74.62084961 C108.41408882 77.14454614 108.4429586 79.66597829 108.47460938 82.18945312 C108.54268429 97.78781249 105.04272602 109.55450751 94.4765625 121.33984375 C82.4522096 132.49452901 64.10628177 137.06005162 49.05578613 142.89385986 C45.76835639 144.16979494 42.48393204 145.45341998 39.19921875 146.73632812 C32.79452584 149.23654031 26.38663113 151.72844729 19.9765625 154.21484375 C20.44491403 156.13275722 20.91628178 158.0499343 21.38891602 159.96679688 C21.65108414 161.03450317 21.91325226 162.10220947 22.18336487 163.20227051 C27.85023139 184.72509124 42.64812459 203.87362792 55.9765625 221.21484375 C56.70939453 222.17729004 56.70939453 222.17729004 57.45703125 223.15917969 C67.11936224 235.83253119 77.62121897 247.77679075 88.4453125 259.46484375 C90.73995661 261.95779044 92.98605895 264.48587703 95.2265625 267.02734375 C100.99419294 273.46368497 107.1748145 279.49908543 113.31958008 285.57202148 C114.77484255 287.01484764 116.21846208 288.46939733 117.66015625 289.92578125 C119.8072726 292.04755221 122.00596761 294.05382105 124.2890625 296.02734375 C124.98644531 296.63191406 125.68382812 297.23648437 126.40234375 297.859375 C126.92183594 298.30667969 127.44132813 298.75398438 127.9765625 299.21484375 C128.07066406 298.37953125 128.16476563 297.54421875 128.26171875 296.68359375 C129.08428052 292.69214649 130.58085118 289.31908625 132.4140625 285.71484375 C132.76895752 285.01705811 133.12385254 284.31927246 133.48950195 283.6003418 C145.61057811 260.43672646 164.77823874 243.16524737 188.9765625 233.21484375 C192.03400468 232.26038317 194.80050288 231.66856655 197.9765625 231.21484375 C197.99074219 230.64121094 198.00492187 230.06757813 198.01953125 229.4765625 C199.42535661 204.43767305 210.97838922 181.07447892 226.9765625 162.21484375 C227.52828125 161.5290625 228.08 160.84328125 228.6484375 160.13671875 C233.43358926 154.34896377 239.03792837 149.7804789 244.9765625 145.21484375 C245.75773437 144.60640625 246.53890625 143.99796875 247.34375 143.37109375 C273.47932228 124.01141058 307.28443831 117.42465278 339.14990234 122.04150391 C370.17829924 127.43298881 398.82905531 145.29503058 417.15478516 170.85839844 C431.95517387 191.99484148 439.43121719 215.58860984 439.2890625 241.40234375 C439.28632828 242.43089478 439.28632828 242.43089478 439.28353882 243.48022461 C439.2377031 253.71517548 438.78701863 263.33291737 435.9765625 273.21484375 C435.63625 274.44203125 435.2959375 275.66921875 434.9453125 276.93359375 C425.04414717 309.31308037 402.82929797 334.32961269 373.35473633 350.38842773 C360.1745366 357.27449762 344.94310045 362.15287051 329.9765625 362.21484375 C329.8734375 363.18679688 329.7703125 364.15875 329.6640625 365.16015625 C324.44526859 401.27493494 293.00709391 437.00637106 264.9765625 458.21484375 C228.1155729 485.56852838 185.28628909 504.14853049 138.9765625 506.21484375 C137.97367188 506.27929688 136.97078125 506.34375 135.9375 506.41015625 C117.61797628 507.12021531 103.41411967 496.34202446 89.9765625 485.21484375 C88.77773438 484.23257813 88.77773438 484.23257813 87.5546875 483.23046875 C83.56128449 479.85619799 80.12601589 476.22534074 76.75 472.23828125 C74.95194333 470.18675403 73.0608199 468.29964834 71.1015625 466.40234375 C66.31668217 461.66312068 62.14664074 456.49287787 57.9765625 451.21484375 C57.45255859 450.55661621 56.92855469 449.89838867 56.38867188 449.22021484 C48.13349392 438.83520098 40.30792849 428.27007818 32.9765625 417.21484375 C32.40824707 416.36293457 31.83993164 415.51102539 31.25439453 414.63330078 C13.38631881 387.79555557 -2.29210026 359.87244995 -17.0234375 331.21484375 C-17.51602051 330.26367676 -18.00860352 329.31250977 -18.51611328 328.33251953 C-40.02879032 286.70538299 -58.31643777 241.87765077 -68.40625 196.01416016 C-68.80728748 194.19521403 -69.22315489 192.37945181 -69.65625 190.56787109 C-76.36686725 162.05305682 -75.17913505 128.94591145 -70.0234375 100.21484375 C-69.85183105 99.22226563 -69.68022461 98.2296875 -69.50341797 97.20703125 C-63.94878574 65.83502438 -53.06916115 30.52612569 -26.83203125 10.17578125 C-18.43995238 4.31649948 -10.11793364 1.07429797 0 0 Z " fill="#000000" transform="translate(73.0234375,2.78515625)"/>
</svg>
