<?xml version="1.0" encoding="UTF-8"?>
<svg version="1.1" xmlns="http://www.w3.org/2000/svg" width="512" height="512">
<path d="M0 0 C9.97207361 11.07159781 15.74661094 24.27401988 15.3125 39.359375 C14.07479356 49.81799438 11.36092571 59.49321983 5 68 C4.21302734 69.05767578 4.21302734 69.05767578 3.41015625 70.13671875 C-3.7107421 78.93312259 -12.82558556 83.52437572 -23 88 C-12.70008016 127.79449967 0.52173324 177.71889576 37.5 201.4375 C51.13062727 209.3468295 64.75955046 212.16112608 80.25 208.5625 C93.9572365 204.55987459 105.01722871 197.09982221 115 187 C115.82757813 186.17757812 116.65515625 185.35515625 117.5078125 184.5078125 C134.49786936 167.4112349 146.41988403 147.04205544 156 125 C152.6688268 121.62441483 152.6688268 121.62441483 149.19140625 118.40234375 C141.97414922 111.91200469 137.40394392 102.77062739 136.7265625 93.09375 C136.33913481 80.68251749 138.21543985 70.72617886 146.27734375 60.80859375 C153.88894627 52.8172741 163.08980898 47.50223435 174.19921875 46.796875 C187.00736761 46.62476102 197.5584006 49.19699669 207.23046875 58.0390625 C217.24053078 68.66888447 219.58731469 79.05195789 219.33984375 93.1484375 C218.87542575 103.10355531 214.08356079 112.075919 207 119 C199.90935389 124.4372219 192.1600745 129.26756231 183 129 C182.89641458 129.79395392 182.79282915 130.58790785 182.68610477 131.40592098 C181.30266551 141.5714103 179.43736662 151.60750988 177.48413086 161.67602539 C177.13049535 163.51226354 176.77715606 165.34855876 176.42408752 167.18490601 C175.47262976 172.12905319 174.51706026 177.0723974 173.56069636 182.01559758 C172.55780218 187.20308628 171.55872587 192.39131023 170.55921936 197.57945251 C168.66843103 207.39085967 166.77419978 217.20159879 164.87873036 227.01210254 C162.72346603 238.16822238 160.57226189 249.32512394 158.42130458 260.48207486 C155.25215317 276.91965856 152.08151192 293.35695487 148.90697289 309.79349899 C148.56386226 311.57005089 148.22080465 313.34661302 147.8778038 315.12318611 C147.40987015 317.54672078 146.94171801 319.97021314 146.47349548 322.39369202 C146.33769843 323.09718546 146.20190137 323.80067891 146.06198925 324.52549034 C145.38663663 328.01957827 144.69794181 331.51029094 144 335 C24.54 335 -94.92 335 -218 335 C-257 133.11764706 -257 133.11764706 -257 129 C-258.0725 128.95875 -259.145 128.9175 -260.25 128.875 C-268.51900371 127.84505292 -277.30251509 122.96248421 -283 117 C-289.60718787 107.93299327 -293.58258551 99.9721827 -293.4375 88.6875 C-293.42920166 87.85299316 -293.42090332 87.01848633 -293.41235352 86.15869141 C-293.11319335 75.19516331 -289.61600859 66.94648628 -282 59 C-271.94904015 49.72077747 -262.0713887 46.64823891 -248.56640625 46.7890625 C-237.70356871 47.43155234 -228.1700605 52.33993655 -220.6875 60.1875 C-211.56300871 71.06670116 -209.88622113 83.30082343 -211 97 C-213.43558733 108.94133675 -220.94229868 116.43178734 -230 124 C-222.31839972 144.03392233 -211.16237284 165.10624701 -195.703125 180.25 C-194 182 -194 182 -194 184 C-193.40960938 184.25652344 -192.81921875 184.51304687 -192.2109375 184.77734375 C-189.79808827 186.1116579 -188.45568494 187.51229854 -186.625 189.5625 C-174.89986488 201.5491623 -157.99123301 209.7894266 -141.1875 210.3125 C-125.57181323 209.97604034 -112.47630437 203.26428543 -101 193 C-100.23945313 192.32195312 -99.47890625 191.64390625 -98.6953125 190.9453125 C-71.26429651 165.03296867 -59.65385675 123.33325844 -51 88 C-52.03898438 87.52691406 -53.07796875 87.05382812 -54.1484375 86.56640625 C-68.34355675 79.91792982 -79.18594244 71.85901983 -85.28125 56.84375 C-90.32070366 42.30132657 -90.43980848 27.96736786 -83.8125 13.75 C-76.53015612 0.55075171 -65.785266 -8.20518419 -51.625 -13.1875 C-32.5718402 -17.45803582 -14.65154183 -13.09332764 0 0 Z " fill="#000000" transform="translate(293,55)"/>
<path d="M0 0 C1.39238679 -0.00373924 2.78477149 -0.00834186 4.17715287 -0.01373065 C7.99385682 -0.02594227 11.810473 -0.02570235 15.62719202 -0.02334189 C19.74730429 -0.02293326 23.8673886 -0.03397733 27.98748779 -0.04345703 C36.05616489 -0.06005804 44.12481275 -0.06556618 52.1935055 -0.06668179 C58.75360353 -0.06763271 65.31369194 -0.07174522 71.87378693 -0.07808304 C90.48079708 -0.09569319 109.08778418 -0.10492229 127.69480273 -0.10342209 C129.19893782 -0.10330222 129.19893782 -0.10330222 130.73345947 -0.10317993 C132.23943527 -0.10305729 132.23943527 -0.10305729 133.77583483 -0.10293217 C150.04424547 -0.10211939 166.31256351 -0.12125565 182.58094737 -0.14945666 C199.29298209 -0.17819768 216.00497166 -0.19199628 232.71703172 -0.19026911 C242.09644625 -0.18960562 251.4757637 -0.19508001 260.85515594 -0.21662521 C268.84145316 -0.23485306 276.82760929 -0.23917121 284.81391832 -0.22560637 C288.88621434 -0.21908472 292.95823981 -0.21893023 297.03050995 -0.23631287 C300.76389131 -0.25208459 304.49678851 -0.24913869 308.23015836 -0.2317446 C310.20901318 -0.22724182 312.18788327 -0.24229982 314.16667914 -0.25822389 C324.81360684 -0.17627547 333.81735913 1.81572634 341.68170166 9.34164429 C348.29176456 16.74791931 350.91771444 24.20162782 350.70904541 34.10726929 C349.94399795 41.94174268 347.04173302 48.77419922 341.58404541 54.47836304 C330.76633693 63.34153027 319.35841184 63.41767363 306.06028748 63.40113831 C304.70828749 63.40300864 303.35628804 63.40531023 302.00428945 63.40800363 C298.30387856 63.41410048 294.60349034 63.41399054 290.90307558 63.41280925 C286.90637324 63.41260471 282.90967809 63.41812907 278.91297913 63.42286682 C271.08841929 63.43116217 263.26386699 63.43392115 255.43930312 63.4344792 C249.07755407 63.43495486 242.71580749 63.4370121 236.35405922 63.44017982 C218.30633613 63.44898312 200.25861897 63.45359967 182.21089371 63.45284935 C181.23857235 63.45280939 180.26625098 63.45276944 179.26446533 63.45272827 C177.804197 63.45266695 177.804197 63.45266695 176.31442831 63.45260439 C160.53756679 63.45219794 144.76072914 63.46176799 128.98387452 63.47586664 C112.77353855 63.49023806 96.56321422 63.49713641 80.35287172 63.49627286 C71.25631185 63.49594117 62.15977701 63.49867603 53.06322289 63.50945091 C45.31852738 63.51856595 37.57386826 63.52072289 29.82916971 63.51394149 C25.88048133 63.51068145 21.9318627 63.51060095 17.983181 63.51929474 C14.36283798 63.52718342 10.74261975 63.52570429 7.12227968 63.51701061 C5.20412634 63.51476054 3.28596906 63.52228561 1.36783093 63.53025025 C-11.27106908 63.48012293 -21.58925155 62.15800342 -31.41595459 53.70492554 C-37.30642167 47.56348618 -39.7764441 39.58409538 -40.09954834 31.20492554 C-39.74312598 22.31736153 -36.60853371 15.4596216 -30.52142334 9.02133179 C-21.27576952 0.58373308 -12.07346896 -0.02904958 0 0 Z " fill="#000000" transform="translate(100.59954833984375,408.7325744628906)"/>
</svg>
