<?xml version="1.0" encoding="UTF-8"?>
<svg version="1.1" xmlns="http://www.w3.org/2000/svg" width="512" height="512">
<path d="M0 0 C1.12684019 -0.00382555 2.25368038 -0.00765109 3.41466725 -0.01159257 C7.18071831 -0.0218899 10.94661598 -0.01793656 14.712677 -0.01396179 C17.41681355 -0.01721755 20.12094163 -0.02342936 22.82507324 -0.02944946 C29.40201679 -0.04217885 35.97891947 -0.04399235 42.55587326 -0.0416492 C47.90361825 -0.0398639 53.25135087 -0.04162023 58.59909439 -0.04587364 C59.74213722 -0.04676643 59.74213722 -0.04676643 60.90827183 -0.04767724 C62.45649424 -0.04888904 64.00471666 -0.05010317 65.55293907 -0.05131962 C80.0622775 -0.06218839 94.57159266 -0.06003582 109.08093239 -0.05393478 C122.34300976 -0.0487663 135.60501366 -0.0600204 148.8670765 -0.07903299 C162.49759458 -0.09842341 176.12807793 -0.10666528 189.75860989 -0.10290974 C197.40588939 -0.10099951 205.05310638 -0.10346787 212.7003746 -0.11762428 C219.21067692 -0.12955441 225.72087822 -0.13092474 232.23118196 -0.11883412 C235.54997103 -0.11295673 238.8684246 -0.11345019 242.18722534 -0.12383652 C245.79181669 -0.13430251 249.39591452 -0.12620375 253.00048828 -0.11352539 C254.55946282 -0.12458682 254.55946282 -0.12458682 256.14993179 -0.13587171 C266.59151445 -0.05880476 275.5816233 2.41730869 283.62722778 9.26069641 C290.72738518 16.88793973 293.7469831 25.20836306 293.75865555 35.57957745 C293.76249669 36.86177188 293.76633784 38.14396631 293.77029538 39.46501511 C293.76951518 40.88581579 293.76863641 42.30661643 293.76766968 43.72741699 C293.770254 45.23840785 293.77326735 46.74939802 293.77667308 48.26038724 C293.78473846 52.41416538 293.78653239 56.56792624 293.78727055 60.72171128 C293.7891219 65.20107049 293.79666966 69.68042075 293.80340576 74.15977478 C293.81698632 83.95529105 293.82301337 93.75080323 293.82741642 103.54632735 C293.83017931 109.66305042 293.83441675 115.77977191 293.83892059 121.89649391 C293.85111289 138.83293019 293.86141229 155.76936521 293.86479568 172.70580578 C293.86501525 173.78972788 293.86523482 174.87364999 293.86546104 175.99041821 C293.86567931 177.07692903 293.86589759 178.16343985 293.86612248 179.28287524 C293.86656595 181.48454805 293.86701251 183.68622087 293.86746216 185.88789368 C293.86768359 186.97999869 293.86790502 188.0721037 293.86813316 189.1973028 C293.87208097 206.89236447 293.88953467 224.58738496 293.91282168 242.28243073 C293.93653877 260.45097833 293.9489977 278.61950526 293.9501636 296.78806859 C293.95108016 306.98850803 293.95682766 317.18889381 293.97498322 327.38931847 C293.99038901 336.07541937 293.99550182 344.76145003 293.98724511 353.447562 C293.98334032 357.87814654 293.98425988 362.30858962 293.99830246 366.73915672 C294.01105149 370.79877419 294.00983512 374.85814407 293.99771175 378.91776124 C293.99575649 380.38278911 293.99882529 381.84783458 294.00755611 383.31283774 C294.08190789 396.63731781 292.17323248 406.95639222 283.03347778 417.01460266 C275.21605438 424.37109308 266.11840603 425.855501 255.74147034 425.76863098 C254.58363086 425.77487094 253.42579139 425.78111091 252.23286587 425.78753996 C249.04597818 425.80065956 245.85970836 425.7960399 242.6728369 425.78359509 C239.22560515 425.77449979 235.77845337 425.78853631 232.33123779 425.79951477 C225.58908636 425.81725653 218.84711354 425.81347966 212.10495525 425.80186421 C206.62375335 425.79281373 201.14260135 425.79161284 195.66139412 425.79595947 C194.87992029 425.7965724 194.09844647 425.79718534 193.29329162 425.79781684 C191.70552752 425.7990958 190.11776345 425.80039265 188.52999938 425.80170721 C173.65868962 425.81310008 158.78747865 425.80001924 143.91618509 425.77850574 C131.16657762 425.76063241 118.41711583 425.76374329 105.66751099 425.78218079 C90.84619868 425.80360433 76.02497283 425.81200526 61.2036472 425.79973173 C59.62218004 425.79845759 58.04071287 425.79720011 56.45924568 425.79595947 C55.2922053 425.79503382 55.2922053 425.79503382 54.10158835 425.79408947 C48.62890167 425.79064127 43.15627 425.79645336 37.68359184 425.80587769 C31.01151046 425.81711541 24.33961722 425.81402037 17.66755729 425.79275471 C14.26584495 425.7822685 10.8644459 425.77808051 7.46273613 425.79135132 C3.77017949 425.80229299 0.07850231 425.78855788 -3.61399841 425.76863098 C-4.68210001 425.77755387 -5.75020161 425.78647676 -6.85066992 425.79567003 C-16.85245082 425.69108569 -25.10544803 422.19142874 -32.37277222 415.26069641 C-37.7546573 408.61388934 -40.61785512 402.37082726 -40.63283443 393.71503258 C-40.63990003 392.40769673 -40.64696562 391.10036088 -40.65424532 389.75340879 C-40.65199413 388.30941639 -40.64954765 386.86542428 -40.64692688 385.4214325 C-40.65138058 383.88212849 -40.65669506 382.34282678 -40.6627956 380.80352843 C-40.67697043 376.57604559 -40.67863899 372.34863629 -40.6781987 368.12113309 C-40.67984737 363.56062377 -40.69291491 359.0001447 -40.70439148 354.43965149 C-40.72723737 344.46844511 -40.73516175 334.49726002 -40.74021792 324.52603102 C-40.74347563 318.29822568 -40.74999859 312.07042651 -40.75721931 305.84262466 C-40.77678525 288.59475847 -40.79318932 271.34689801 -40.79609585 254.09902 C-40.79628342 252.99536287 -40.79647099 251.89170573 -40.79666424 250.75460444 C-40.79703049 248.51727907 -40.79739419 246.2799537 -40.79775535 244.04262833 C-40.79793816 242.93203709 -40.79812098 241.82144584 -40.79830933 240.67720032 C-40.79848988 239.56525113 -40.79867042 238.45330194 -40.79885644 237.30765732 C-40.80239737 219.29388263 -40.82941474 201.28022754 -40.86680721 183.26649432 C-40.90490295 164.76567699 -40.92425342 146.26491899 -40.92455536 127.76406157 C-40.92513967 117.3790948 -40.9336145 106.99427068 -40.96255302 96.60934067 C-40.98708389 87.76554778 -40.9943383 78.92194956 -40.9793055 70.07813184 C-40.97214343 65.56821762 -40.97296361 61.05868766 -40.99571609 56.54881668 C-41.01637421 52.41435508 -41.01364257 48.28057149 -40.99284125 44.14611669 C-40.98935934 42.65618148 -40.99420101 41.16619666 -41.00854569 39.67632644 C-41.11103985 28.2906853 -39.50421212 18.42093854 -31.56027222 9.76069641 C-22.36092491 1.44158684 -12.01296476 -0.04349669 0 0 Z M123.62722778 98.26069641 C123.3422644 99.19413879 123.3422644 99.19413879 123.05154419 100.1464386 C116.73156661 120.58790912 109.06579179 139.44352466 95.62722778 156.26069641 C94.95989624 157.09721741 94.95989624 157.09721741 94.27908325 157.95063782 C72.51220905 184.94465482 45.24780385 201.79988919 11.62722778 210.26069641 C14.75177327 212.01468409 18.00051892 213.0530518 21.41311646 214.11128235 C43.89673847 221.14208576 63.29076019 232.3719291 80.62722778 248.26069641 C81.20359985 248.78647278 81.77997192 249.31224915 82.37380981 249.85395813 C103.7471967 269.60523157 115.89169358 294.50377957 123.62722778 322.26069641 C125.18759288 319.33331949 126.26191759 316.46093095 127.22097778 313.28804016 C139.45342426 273.97225372 163.2642911 244.00084017 199.48953247 224.24507141 C209.12272294 219.19295218 219.24116061 215.93963485 229.66702271 212.92744446 C231.76689663 212.21318917 233.66675936 211.29334298 235.62722778 210.26069641 C235.01427856 210.06024719 234.40132935 209.85979797 233.76980591 209.65327454 C220.87648312 205.40050315 208.47776682 200.92827419 196.62722778 194.26069641 C195.51347778 193.6355011 194.39972778 193.01030579 193.25222778 192.36616516 C158.86299062 172.07155525 137.8543453 142.41207687 126.42996216 104.6164093 C125.66519032 102.37210167 124.7411011 100.35041698 123.62722778 98.26069641 Z " fill="#000000" transform="translate(98.37277221679688,11.739303588867188)"/>
<path d="M0 0 C1.58007642 0.12346415 3.15937203 0.25694283 4.73828125 0.39453125 C5.61782471 0.46776611 6.49736816 0.54100098 7.40356445 0.61645508 C15.06093495 1.74760026 21.83365696 6.88710467 26.4765625 12.91796875 C30.57219471 19.1093192 32.24791058 25.19035655 32.25726891 32.64306355 C32.2637178 33.94665705 32.27016669 35.25025056 32.276811 36.59334689 C32.27386914 38.02791464 32.27073374 39.462482 32.26742554 40.89704895 C32.27116403 42.43039142 32.27576634 43.96373198 32.28115618 45.49706954 C32.29337694 49.70335534 32.29312681 53.90956156 32.29076743 58.11586106 C32.29035903 62.65517978 32.30140057 67.19447306 32.31088257 71.73377991 C32.32748823 80.6242895 32.33299191 89.51477256 32.33410732 98.40529636 C32.33505796 105.63235542 32.33916902 112.85940573 32.34550858 120.08646202 C32.36311942 140.58001336 32.37234763 161.07354375 32.37084763 181.56710271 C32.37076772 182.67168001 32.3706878 183.7762573 32.37060547 184.91430664 C32.37052371 186.02023372 32.37044195 187.1261608 32.37035771 188.26560082 C32.36954474 206.19011411 32.38868545 224.11454339 32.4168822 242.03903238 C32.44561118 260.44721027 32.4594225 278.85534719 32.45769465 297.26354808 C32.45703078 307.59699247 32.46252196 317.93034877 32.48405075 328.26377296 C32.50226266 337.06146807 32.50660974 345.85903514 32.4930319 354.65674094 C32.48650246 359.14408355 32.48638421 363.63118052 32.5037384 368.11849976 C32.51947512 372.22991696 32.51659954 376.34089389 32.49917014 380.45230039 C32.49610157 381.93611049 32.4997273 383.41995349 32.51089029 384.90372477 C32.59591266 397.01089213 30.63892459 407.05322954 22 416 C12.91008932 423.69414704 3.01813853 425.45594416 -8.61328125 425.38095093 C-9.74183029 425.3856309 -10.87037933 425.39031087 -12.03312683 425.39513266 C-15.79303947 425.40704378 -19.55258502 425.39764032 -23.3125 425.38818359 C-26.01693468 425.39060154 -28.72135405 425.39748586 -31.42578125 425.40411377 C-37.9957892 425.41741842 -44.56569404 425.414588 -51.13570595 425.40587585 C-56.47768623 425.3990868 -61.81963773 425.39818785 -67.16162109 425.4014473 C-68.30425745 425.40213684 -68.30425745 425.40213684 -69.46997738 425.40284032 C-71.01771673 425.40379955 -72.56545608 425.40477219 -74.11319542 425.4057581 C-88.60920448 425.41430242 -103.10515653 425.40449292 -117.60115623 425.388357 C-130.02579936 425.37495468 -142.45035839 425.37728305 -154.875 425.39111328 C-169.32092166 425.40718605 -183.76679342 425.41347853 -198.21272278 425.40427649 C-199.75460815 425.40332089 -201.29649352 425.40237778 -202.83837891 425.4014473 C-203.59691634 425.40098447 -204.35545378 425.40052164 -205.1369772 425.40004479 C-210.46942282 425.39745999 -215.80183665 425.40181488 -221.13427734 425.40888596 C-227.63721873 425.41732004 -234.14005155 425.41498086 -240.64298058 425.39904372 C-243.95772779 425.39118645 -247.27214541 425.38965406 -250.58691406 425.39799118 C-254.18702818 425.40621007 -257.78663669 425.39588008 -261.38671875 425.38095093 C-262.42467087 425.38764309 -263.46262299 425.39433526 -264.5320282 425.40123022 C-274.96863607 425.31750236 -283.95818408 422.84016526 -292 416 C-297.28629651 410.321271 -300.79780371 404.07710953 -301.57421875 396.27734375 C-301.65631592 395.47417725 -301.73841309 394.67101074 -301.82299805 393.84350586 C-301.88140869 393.23514893 -301.93981934 392.62679199 -302 392 C-301.43286512 392.00075944 -300.86573023 392.00151888 -300.28140944 392.00230134 C-266.64511369 392.04708781 -233.00882473 392.08138844 -199.37250565 392.10213066 C-195.33093796 392.10463198 -191.28937033 392.10722063 -187.24780273 392.10986328 C-186.44322216 392.1103879 -185.63864159 392.11091252 -184.80967978 392.11145304 C-171.79351731 392.12014825 -158.77737256 392.13591335 -145.7612206 392.15430559 C-132.39877195 392.17302925 -119.03633256 392.18412194 -105.67387134 392.18817699 C-97.43299642 392.19091693 -89.1921716 392.19956114 -80.9513121 392.21583293 C-75.29509305 392.22643026 -69.63889978 392.22959442 -63.98267152 392.22700275 C-60.72261584 392.22572573 -57.46266554 392.22874464 -54.20262146 392.23841095 C-50.6593599 392.24840002 -47.11631057 392.2459543 -43.57304382 392.24050903 C-42.55452904 392.24633472 -41.53601426 392.2521604 -40.48663539 392.25816262 C-28.69695759 392.20938171 -17.91356712 390.79462403 -9.18359375 382.21484375 C-1.31623506 372.61232826 -0.411126 361.79386213 -0.48101807 349.82038879 C-0.47513318 348.30533553 -0.46750113 346.79028824 -0.458287 345.27525157 C-0.43812585 341.13842387 -0.44255453 337.00194105 -0.45119452 332.86508691 C-0.45615578 328.39417035 -0.43803413 323.9233386 -0.42277527 319.45245361 C-0.39949964 311.71510153 -0.39071311 303.97784307 -0.39188385 296.24045753 C-0.3935554 285.0536431 -0.37319481 273.86695322 -0.34752855 262.68017205 C-0.30647772 244.52856803 -0.28314229 226.37698648 -0.27099609 208.2253418 C-0.25916206 190.59706464 -0.2389546 172.96882974 -0.20751953 155.34057617 C-0.20558343 154.25321274 -0.20364733 153.16584932 -0.20165256 152.04553548 C-0.19188775 146.5903262 -0.18195869 141.13511723 -0.17194796 135.67990839 C-0.08916599 90.45329287 -0.03515492 45.22667594 0 0 Z " fill="#000000" transform="translate(422,75)"/>
</svg>
