<?xml version="1.0" encoding="UTF-8"?>
<svg version="1.1" xmlns="http://www.w3.org/2000/svg" width="512" height="512">
<path d="M0 0 C2.8854819 2.21535632 5.64652501 4.52696469 8.39453125 6.91015625 C16.01586698 13.02322164 24.46314081 14.53243549 34 14 C35.40378906 13.75830078 35.40378906 13.75830078 36.8359375 13.51171875 C49.28596777 11.49819534 60.39001889 12.7474377 70.75 20.125 C77.48369828 25.8005457 81.53826493 32.32156834 84.5 40.5625 C88.3154357 51.05803509 93.96669846 57.15485866 104 62 C106.01438078 62.82836808 108.03546018 63.6406103 110.0625 64.4375 C120.77126927 68.77592447 128.27244187 75.82855585 133.09765625 86.40625 C135.99070324 94.69516602 135.74005052 103.48859009 134 112 C132.9054736 124.52425296 136.22325382 133.37987694 144 143 C152.0799022 153.89710781 154.23022968 163.54858751 153 177 C151.30065954 183.78864729 147.88095202 189.36377138 143.5546875 194.82421875 C136.0568429 204.41317077 133.53938448 212.93541663 134 225 C134.165 225.969375 134.33 226.93875 134.5 227.9375 C136.23820511 238.58400632 135.06062138 248.38586525 129.375 257.625 C123.47444389 265.73470151 117.15147612 270.16917121 108 274 C95.36407796 279.32032048 89.54267615 285.38455682 84 298 C78.53387709 310.16701738 72.66674982 317.99410047 60 323 C53.49013262 325.31542769 46.91933904 325.67556323 40.14453125 324.5078125 C29.88445117 322.85090516 19.1989176 322.99148072 10.40966797 329.10644531 C8.13911038 330.8058647 5.91842227 332.55974804 3.71484375 334.3449707 C-6.11573064 342.25403409 -15.57209257 343.91420641 -28 343 C-36.73458022 341.20035552 -43.04693233 336.32327708 -50 331 C-60.03245821 323.96493704 -70.0372036 322.61263839 -82.1796875 324.4921875 C-83.11039062 324.65976562 -84.04109375 324.82734375 -85 325 C-94.13852783 326.0380823 -103.86586745 323.5865874 -111.375 318.25 C-112.60935331 317.19640973 -113.81884866 316.11290704 -115 315 C-115.87011719 314.24203125 -115.87011719 314.24203125 -116.7578125 313.46875 C-121.31252559 308.97531108 -123.50205618 303.86479468 -125.9375 298.0625 C-132.21171031 283.30659757 -140.62272972 278.04788228 -154.84375 271.73828125 C-165.75240875 266.67114193 -171.56698029 259.12089719 -176 248 C-177.96523527 240.49209521 -177.28718191 232.56219371 -176 225 C-174.9031022 212.39602339 -178.50183859 203.26269203 -186.3449707 193.66699219 C-194.39885868 183.75867958 -196.08536153 173.43921324 -195 161 C-193.55155365 153.88865195 -190.39916042 148.77245844 -185.80859375 143.25390625 C-177.96876771 133.48375587 -175.27094213 124.44484824 -176 112 C-176.32980899 110.33263234 -176.66317961 108.66596546 -177 107 C-177.89855915 96.02579398 -176.38196187 86.27878715 -169.875 77.1875 C-163.51516081 69.72042766 -155.86696352 65.79408165 -146.890625 62.2265625 C-138.14647838 58.5162084 -132.54727579 53.35963832 -128 45 C-127.1251794 42.82875851 -126.29252858 40.64011189 -125.5 38.4375 C-121.42661665 27.2192177 -114.41643226 20.37156648 -103.88671875 14.90234375 C-95.67571006 11.57773571 -85.5084758 12.18182821 -77 14 C-64.59522034 15.0841152 -55.56776649 11.02150379 -46.01171875 3.41796875 C-32.80858577 -7.03340906 -14.69377885 -9.11014288 0 0 Z M-22 78 C-24.57883878 84.09693868 -27.15640233 90.19441541 -29.7331543 96.29223633 C-30.60657113 98.3587614 -31.48026069 100.42517123 -32.35424805 102.49145508 C-33.20333965 104.49897459 -34.05200503 106.50667444 -34.90023804 108.51455688 C-35.73823444 110.49763574 -36.57744214 112.48020318 -37.4178772 114.46224976 C-39.35150105 119.03434056 -41.25672403 123.61269382 -43.07763672 128.23095703 C-43.39389511 129.02631363 -43.7101535 129.82167023 -44.03599548 130.64112854 C-44.61806974 132.11254694 -45.19105241 133.58760714 -45.75318909 135.0667572 C-46.4197056 136.74626921 -47.20023995 138.37969487 -48 140 C-51.04242887 141.01414296 -53.54736596 141.29979179 -56.73730469 141.55664062 C-58.50494171 141.70184143 -58.50494171 141.70184143 -60.30828857 141.84997559 C-62.22076385 142.00158142 -62.22076385 142.00158142 -64.171875 142.15625 C-66.17501811 142.320047 -68.17816105 142.4838462 -70.18129349 142.64777374 C-72.99124699 142.87682968 -75.80146613 143.1025291 -78.61169434 143.32818604 C-83.51232033 143.72195387 -88.41269654 144.11876738 -93.31280518 144.5189209 C-95.92033111 144.73151765 -98.52803298 144.94197017 -101.13592529 145.15002441 C-106.78980918 145.60954052 -112.39896197 146.09373674 -118 147 C-114.21299145 150.88704274 -110.24322241 154.46832373 -106.125 158 C-104.78509925 159.15488179 -103.44525715 160.30983163 -102.10546875 161.46484375 C-101.42403809 162.05120605 -100.74260742 162.63756836 -100.04052734 163.24169922 C-97.45455824 165.47000138 -94.87673105 167.70757867 -92.29956055 169.94604492 C-89.82773779 172.09183468 -87.35170726 174.23274501 -84.87597656 176.37402344 C-82.94237196 178.0499483 -81.01408159 179.73186006 -79.0859375 181.4140625 C-77.8282745 182.50538065 -76.57046733 183.59653268 -75.3125 184.6875 C-74.7362085 185.19289307 -74.15991699 185.69828613 -73.56616211 186.21899414 C-70.82624474 188.58701024 -68.27118622 190.46571126 -65 192 C-65.35396851 193.44560303 -65.35396851 193.44560303 -65.71508789 194.92041016 C-68.29091356 205.44683656 -70.85177328 215.97684317 -73.39813232 226.51043701 C-73.78995201 228.13115835 -74.18206723 229.75180828 -74.57452393 231.37237549 C-75.61158218 235.65647217 -76.64152162 239.94214017 -77.65914917 244.230896 C-78.1197896 246.165616 -78.58732223 248.09869081 -79.05493164 250.03173828 C-79.32813232 251.19044434 -79.60133301 252.34915039 -79.8828125 253.54296875 C-80.12402832 254.55383545 -80.36524414 255.56470215 -80.61376953 256.60620117 C-81.2400932 259.00645837 -81.2400932 259.00645837 -80 261 C-59.19353939 248.79001412 -59.19353939 248.79001412 -38.625 236.1875 C-38.02067139 235.80899902 -37.41634277 235.43049805 -36.79370117 235.04052734 C-34.17563075 233.39522449 -31.5830911 231.72151576 -29.01171875 230.00390625 C-27.67560547 229.13572266 -27.67560547 229.13572266 -26.3125 228.25 C-25.58675781 227.76015625 -24.86101562 227.2703125 -24.11328125 226.765625 C-21.11172126 225.67818367 -19.8658189 226.68524999 -17 228 C-15.17769715 228.9987868 -13.37551362 230.03476121 -11.58984375 231.09765625 C-10.52999268 231.72671875 -9.4701416 232.35578125 -8.37817383 233.00390625 C-7.23119005 233.68994954 -6.08430105 234.37615131 -4.9375 235.0625 C-3.75230089 235.76840317 -2.56699637 236.4741294 -1.3815918 237.1796875 C11.79667456 245.03496525 24.90303243 253.01014813 38 261 C39.48078217 258.03843565 38.508612 256.14315129 37.75244141 252.94555664 C37.45528229 251.67406265 37.15812317 250.40256866 36.85195923 249.09254456 C36.51868129 247.69837025 36.18521102 246.30424191 35.8515625 244.91015625 C35.5156586 243.48543925 35.18032877 242.06058679 34.84555054 240.63560486 C34.14176353 237.64612094 33.43352108 234.65774217 32.72167969 231.67016602 C31.809141 227.84026724 30.9037569 224.00872685 30.00121498 220.17646122 C29.14100978 216.52467731 28.27788104 212.8735869 27.4140625 209.22265625 C27.24911915 208.52501726 27.0841758 207.82737827 26.91423416 207.10859871 C26.44651139 205.13330537 25.97648246 203.15855853 25.50634766 201.18383789 C25.23907867 200.05957901 24.97180969 198.93532013 24.69644165 197.7769928 C24.0226854 194.94146385 24.0226854 194.94146385 23 192 C23.55558594 191.76410156 24.11117187 191.52820313 24.68359375 191.28515625 C27.56375591 189.6872248 29.66369076 187.694995 32.0625 185.4375 C35.77478591 181.98537429 39.54816138 178.68074816 43.5 175.5 C48.24806572 171.66917425 52.74071384 167.62066046 57.2265625 163.48828125 C60.87099114 160.21856147 64.66129293 157.15303115 68.4921875 154.10546875 C71.1520957 151.87230594 73.57797968 149.48712839 76 147 C57.8933685 145.11034819 39.78313575 143.42631656 21.63378906 142.00268555 C20.88725067 141.94289017 20.14071228 141.88309479 19.37155151 141.82148743 C17.34213657 141.65894562 15.3124343 141.50000263 13.28271484 141.34130859 C8.17962498 140.81073299 8.17962498 140.81073299 6 140 C4.88946533 138.37515259 4.88946533 138.37515259 4.02050781 136.24072266 C3.68625793 135.44123199 3.35200806 134.64174133 3.00762939 133.81802368 C2.65964294 132.94221649 2.31165649 132.0664093 1.953125 131.1640625 C1.57822937 130.25610931 1.20333374 129.34815613 0.81707764 128.41268921 C-0.38636136 125.48912849 -1.56852152 122.55749511 -2.75 119.625 C-3.52983158 117.7181693 -4.31106731 115.8119122 -5.09375 113.90625 C-6.64131028 110.13446636 -8.18146134 106.35978259 -9.71679688 102.58300781 C-13.06931019 94.35715335 -16.53295708 86.17808651 -20 78 C-20.66 78 -21.32 78 -22 78 Z " fill="#000000" transform="translate(277,21)"/>
<path d="M0 0 C2.22952273 2.22952273 3.24869529 4.52314293 4.56201172 7.35766602 C11.51757299 22.25152892 21.7168987 32.39788641 36.9453125 38.93359375 C47.18374371 42.50787984 57.75854845 44.03449308 68.5 42.5 C70.2325 42.2525 70.2325 42.2525 72 42 C72.72445312 41.86207031 73.44890625 41.72414063 74.1953125 41.58203125 C79.49745942 40.99385097 82.44254699 41.9591092 86.67919922 45.27612305 C87.77441876 46.1806205 88.86586515 47.08970489 89.95361328 48.00317383 C96.85084457 53.73666221 104.72423897 56.69108881 113 60 C111.79349453 67.14638016 110.29835283 74.1277888 108.40209961 81.12133789 C108.14982101 82.06582794 107.89754242 83.01031799 107.63761902 83.98342896 C106.81349367 87.0643424 105.98307187 90.14351722 105.15234375 93.22265625 C104.57434672 95.37682025 103.99667966 97.53107281 103.41932678 99.68540955 C102.21417413 104.17862797 101.00607533 108.67103981 99.7956543 113.1628418 C98.24201822 118.92866925 96.69424439 124.69605002 95.14844418 130.46398258 C93.95863947 134.90210168 92.76657551 139.33961127 91.57373238 143.7769146 C91.00186261 145.90472019 90.43051497 148.03266618 89.85969353 150.16075325 C89.06481455 153.1221662 88.2670915 156.08279767 87.46850586 159.04321289 C87.23212402 159.92576248 86.99574219 160.80831207 86.75219727 161.71760559 C86.53494492 162.5206311 86.31769257 163.32365662 86.09385681 164.15101624 C85.9056433 164.850197 85.71742979 165.54937777 85.52351284 166.26974583 C85 168 85 168 84 170 C80.754387 168.57925676 78.6373841 166.86237319 76.171875 164.33203125 C75.45386719 163.60306641 74.73585938 162.87410156 73.99609375 162.12304688 C73.25488281 161.36056641 72.51367188 160.59808594 71.75 159.8125 C65.63539441 153.5412261 65.63539441 153.5412261 59.14453125 147.66796875 C55.78005696 144.78371858 52.70239943 141.6782291 49.65234375 138.46875 C48.7078342 137.48422925 47.76317131 136.49985557 46.81835938 135.515625 C45.36428843 133.99953675 43.91766275 132.47864247 42.48803711 130.93945312 C41.08199567 129.43041457 39.65168676 127.94841122 38.21484375 126.46875 C37.38073975 125.58638672 36.54663574 124.70402344 35.68725586 123.79492188 C33.12484056 121.72192073 33.12484056 121.72192073 30.01464844 122.00952148 C28.66921069 122.30889587 27.33183042 122.64495705 26 123 C24.58026634 123.34111313 24.58026634 123.34111313 23.1318512 123.68911743 C19.5958999 124.55325742 16.0736179 125.46280503 12.55078125 126.37890625 C11.24769279 126.71424323 9.94448321 127.0491099 8.64115906 127.38352966 C3.83163406 128.61854256 -0.97601581 129.86078027 -5.78320312 131.1048584 C-9.85914106 132.15963636 -13.93600672 133.21065945 -18.01432228 134.25620842 C-19.92081293 134.74659965 -21.82586063 135.2425896 -23.73088074 135.73866272 C-25.46837334 136.1842881 -25.46837334 136.1842881 -27.2409668 136.63891602 C-28.76816597 137.03410179 -28.76816597 137.03410179 -30.32621765 137.43727112 C-33 138 -33 138 -37 138 C-33.87390702 124.20887029 -30.28482285 110.55628609 -26.625 96.8984375 C-26.01231243 94.60460183 -25.39984933 92.3107062 -24.78759766 90.01675415 C-23.1868661 84.02158253 -21.58314912 78.02721364 -19.97875977 72.03302002 C-18.35382814 65.95999514 -16.73171126 59.88621862 -15.109375 53.8125 C-13.28027754 46.96555059 -11.45086936 40.11868496 -9.61962891 33.27230835 C-9.34166473 32.23296961 -9.06370056 31.19363087 -8.77731323 30.12279701 C-8.24254248 28.12421226 -7.70734128 26.12574262 -7.17166138 24.12740135 C-6.02005907 19.82914143 -4.87392096 15.52978252 -3.75097656 11.22393799 C-3.4716478 10.15802649 -3.4716478 10.15802649 -3.18667603 9.07058144 C-2.7046848 7.22804334 -2.22643726 5.38452701 -1.74853516 3.54092407 C-1 1 -1 1 0 0 Z " fill="#000000" transform="translate(128,326)"/>
<path d="M0 0 C0.99 0.495 0.99 0.495 2 1 C2.88080541 3.69469037 3.63990893 6.3504327 4.34741211 9.09179688 C4.68710526 10.36848236 4.68710526 10.36848236 5.03366089 11.67095947 C5.78921148 14.51825772 6.53320067 17.36845099 7.27734375 20.21875 C7.80791273 22.22679537 8.33922164 24.23464536 8.87123108 26.24230957 C10.28298784 31.57757478 11.68514064 36.91531845 13.08520508 42.25366211 C14.46631701 47.51423082 15.8552837 52.77272173 17.24414062 58.03125 C18.88423937 64.24195451 20.52362562 70.45283864 22.15805054 76.66503906 C24.83652482 86.84093946 27.53211555 97.01178659 30.27001953 107.171875 C30.65941822 108.61763287 30.65941822 108.61763287 31.05668354 110.09259796 C32.28512266 114.65094624 33.51690326 119.20835808 34.75340271 123.76452637 C35.18665219 125.36839266 35.61984744 126.9722736 36.05297852 128.57617188 C36.25208139 129.30537842 36.45118427 130.03458496 36.65632057 130.78588867 C38 135.77352791 38 135.77352791 38 138 C30.67479527 137.33750941 23.7969706 135.49391629 16.70703125 133.5859375 C14.77562715 133.07581683 12.84421966 132.56570864 10.91261578 132.05634499 C6.17856783 130.8064253 1.44742967 129.54565882 -3.28198242 128.27832031 C-5.94756034 127.56447945 -8.61454932 126.85641332 -11.28327942 126.15444946 C-13.78982509 125.49471895 -16.29408094 124.82621278 -18.79570007 124.14804077 C-20.49820671 123.70230209 -20.49820671 123.70230209 -22.23510742 123.24755859 C-23.23023849 122.9818808 -24.22536957 122.716203 -25.25065613 122.44247437 C-28.22720409 121.96343419 -30.13386661 122.09524623 -33 123 C-35.19231753 124.86320404 -37.1336905 126.69098818 -39.11328125 128.7578125 C-39.68652634 129.33908905 -40.25977142 129.9203656 -40.85038757 130.51925659 C-42.68079624 132.37860434 -44.49708358 134.25102176 -46.3125 136.125 C-48.70018359 138.56928195 -51.09335572 141.00812773 -53.48828125 143.4453125 C-54.35090576 144.32566414 -54.35090576 144.32566414 -55.23095703 145.22380066 C-58.77459272 148.82099263 -62.41118459 152.22854468 -66.26733398 155.4921875 C-69.92444263 158.67470166 -73.23166594 162.23254091 -76.59375 165.72070312 C-78.02698953 167.18281122 -79.50962542 168.59617692 -81 170 C-81.66 170 -82.32 170 -83 170 C-87.00997483 156.1163943 -90.88078827 142.20176474 -94.6171875 128.2421875 C-95.12423391 126.35123539 -95.63132511 124.4602953 -96.13845825 122.56936646 C-97.18666433 118.65904792 -98.23343241 114.74834778 -99.27929688 110.83740234 C-100.62050923 105.82302566 -101.96686084 100.8100436 -103.31439018 95.79736137 C-104.35664209 91.91711828 -105.39552645 88.03597958 -106.43344498 84.15457535 C-106.92903178 82.30344441 -107.42583597 80.45263894 -107.92388535 78.60216904 C-108.61409156 76.03632911 -109.29958887 73.46927642 -109.98388672 70.90185547 C-110.18952744 70.14146973 -110.39516815 69.38108398 -110.60704041 68.59765625 C-111.39014175 65.64328371 -112 63.0712648 -112 60 C-110.97261719 59.5875 -109.94523437 59.175 -108.88671875 58.75 C-99.21299234 54.75789133 -90.99347922 50.16072574 -83.00390625 43.28125 C-80.5373741 41.704208 -79.09193326 41.65852179 -76.1875 41.75 C-74.86298828 41.78867187 -74.86298828 41.78867187 -73.51171875 41.828125 C-70.31337288 42.04698537 -67.17297681 42.5467176 -64 43 C-47.88251122 44.30362042 -32.66766424 39.11238636 -19.79296875 29.640625 C-10.24251072 21.43585395 -4.81496767 11.47160499 0 0 Z " fill="#000000" transform="translate(383,326)"/>
</svg>
