<?xml version="1.0" encoding="UTF-8"?>
<svg version="1.1" xmlns="http://www.w3.org/2000/svg" width="512" height="512">
<path d="M0 0 C22.93371451 21.42574424 22.93371451 21.42574424 32.171875 33.30078125 C34.06176955 35.71442565 36.0380199 38.02999389 38.05200195 40.34033203 C48.26831633 52.11744721 57.0139863 65.00462035 65.6875 77.9375 C66.55048706 79.22140625 66.55048706 79.22140625 67.4309082 80.53125 C79.37531906 98.5171372 79.37531906 98.5171372 77.1875 110.875 C75.19908052 116.01854566 72.29142521 120.35964821 69.1875 124.875 C68.59743164 125.74930664 68.00736328 126.62361328 67.39941406 127.52441406 C59.69607765 138.91580458 51.7929703 150.14472222 43.1875 160.875 C42.10662109 162.22658203 42.10662109 162.22658203 41.00390625 163.60546875 C38.7557518 166.38260072 36.47414724 169.12950646 34.1875 171.875 C33.39988281 172.84953125 32.61226563 173.8240625 31.80078125 174.828125 C25.04318349 183.06438432 17.63437503 190.64322649 10.125 198.1875 C9.36508255 198.95518204 9.36508255 198.95518204 8.58981323 199.7383728 C1.7957085 206.58712807 -5.2216421 212.8993819 -12.8125 218.875 C-13.91933037 219.7681554 -15.02611266 220.66137038 -16.1328125 221.5546875 C-54.34351235 251.46334114 -98.74079459 268.52856057 -146.8125 273.875 C-147.99320068 274.01856934 -147.99320068 274.01856934 -149.19775391 274.16503906 C-217.60477313 281.59277145 -287.95074122 264.04939239 -342.01269531 221.03393555 C-359.11026325 207.19663515 -376.25830897 191.85213925 -389.796875 174.44921875 C-391.68676955 172.03557435 -393.6630199 169.72000611 -395.67700195 167.40966797 C-405.89331633 155.63255279 -414.6389863 142.74537965 -423.3125 129.8125 C-423.88782471 128.9565625 -424.46314941 128.100625 -425.0559082 127.21875 C-437.00031906 109.2328628 -437.00031906 109.2328628 -434.8125 96.875 C-432.82408052 91.73145434 -429.91642521 87.39035179 -426.8125 82.875 C-426.22243164 82.00069336 -425.63236328 81.12638672 -425.02441406 80.22558594 C-417.32107765 68.83419542 -409.4179703 57.60527778 -400.8125 46.875 C-400.09191406 45.97394531 -399.37132812 45.07289063 -398.62890625 44.14453125 C-396.3807518 41.36739928 -394.09914724 38.62049354 -391.8125 35.875 C-391.02488281 34.90046875 -390.23726563 33.9259375 -389.42578125 32.921875 C-382.66818349 24.68561568 -375.25937503 17.10677351 -367.75 9.5625 C-367.24338837 9.05071198 -366.73677673 8.53892395 -366.21481323 8.0116272 C-359.4207085 1.16287193 -352.4033579 -5.1493819 -344.8125 -11.125 C-343.70566963 -12.0181554 -342.59888734 -12.91137038 -341.4921875 -13.8046875 C-321.56589215 -29.40159277 -299.49051424 -42.16911678 -275.8125 -51.125 C-275.01328125 -51.42889648 -274.2140625 -51.73279297 -273.390625 -52.04589844 C-180.67959762 -86.62799743 -73.09780884 -65.60578965 0 0 Z M-260.25488281 35.08349609 C-279.4959616 57.21375254 -286.57409412 86.09429609 -284.8125 114.875 C-281.72985137 142.92459628 -267.83545392 167.31169949 -246.8125 185.875 C-224.06175915 204.09280636 -196.74198077 211.85952964 -167.8125 209.875 C-139.5901352 206.7024625 -115.6666939 192.91437536 -96.8125 171.875 C-78.273978 148.58917415 -69.7870119 119.7892379 -73.1171875 90.16455078 C-76.25681974 68.59960229 -85.14763338 49.05290842 -99.8125 32.875 C-100.25045898 32.38789551 -100.68841797 31.90079102 -101.13964844 31.39892578 C-118.72051991 12.0872628 -143.82256946 -0.66764379 -170.09521484 -2.26367188 C-205.75027313 -3.6785001 -236.00298571 8.78018928 -260.25488281 35.08349609 Z " fill="#000000" transform="translate(434.8125,152.125)"/>
<path d="M0 0 C14.66593153 10.19568513 25.60840641 23.74932626 29.74780273 41.46484375 C31.86603529 54.29763126 31.44584138 68.79991362 26.125 80.75 C25.76277344 81.62269531 25.40054688 82.49539063 25.02734375 83.39453125 C17.33536706 100.36902897 3.07751411 111.05081733 -13.734375 117.91796875 C-30.02500275 122.93228047 -49.3872321 120.84818754 -64.375 113.25 C-80.79373216 104.34772371 -91.48385123 89.95575147 -96.98828125 72.1484375 C-100.09059644 59.05712927 -99.35177869 43.05030624 -93.875 30.75 C-93.51277344 29.87730469 -93.15054688 29.00460938 -92.77734375 28.10546875 C-85.8549626 12.82929883 -73.23462165 1.78063924 -57.87109375 -4.47265625 C-38.93392049 -11.50790437 -17.48941603 -10.43527048 0 0 Z " fill="#000000" transform="translate(289.875,200.25)"/>
<path d="M0 0 C1.12254936 -0.01226624 1.12254936 -0.01226624 2.26777649 -0.02478027 C4.74532276 -0.04959789 7.22281176 -0.06614308 9.70043945 -0.08056641 C10.97214461 -0.08855192 10.97214461 -0.08855192 12.26954079 -0.09669876 C16.75911174 -0.12341765 21.24865504 -0.14279448 25.73828125 -0.15722656 C29.44654073 -0.17055247 33.1542482 -0.19838147 36.86230469 -0.23925781 C41.34622338 -0.28868323 45.82964233 -0.3133599 50.31382179 -0.32045364 C52.01820137 -0.32714952 53.72257053 -0.34232819 55.42679405 -0.36634445 C71.52352422 -0.5801971 71.52352422 -0.5801971 77.26789856 3.86727905 C81.4749346 7.97294244 84.43164927 11.65391029 84.88691711 17.59469604 C84.90180342 18.9670292 84.90569787 20.33950863 84.90087891 21.71191406 C84.90598984 22.46363892 84.91110077 23.21536377 84.91636658 23.98986816 C84.93025159 26.4716796 84.92930647 28.95321295 84.92700195 31.43505859 C84.93088986 33.1637482 84.93522473 34.89243685 84.93998718 36.62112427 C84.94744732 40.24419247 84.94715989 43.86716322 84.94189453 47.49023438 C84.93610421 52.12615167 84.95302121 56.76166889 84.9762392 61.39752007 C84.99099456 64.96809205 84.99184573 68.53856812 84.98872948 72.10916519 C84.98924192 73.81794145 84.99446514 75.52672319 85.0045414 77.23546982 C85.01692179 79.6289213 85.01010468 82.02159932 84.99853516 84.41503906 C85.00617889 85.11654083 85.01382263 85.8180426 85.021698 86.540802 C84.95858381 92.46837087 83.19162525 96.31438564 79.4387207 100.81787109 C73.4199262 105.90040868 68.26007112 107.91299469 60.30200195 107.57177734 C53.4562508 106.602379 49.18831459 103.2913696 44.8527832 98.07177734 C42.34786131 94.23461992 41.37511016 90.77831936 41.39916992 86.21899414 C41.39932098 85.2583757 41.39947205 84.29775726 41.39962769 83.30802917 C41.40995026 82.2838942 41.42027283 81.25975922 41.4309082 80.20458984 C41.4337381 79.14625443 41.43656799 78.08791901 41.43948364 76.99751282 C41.45065781 73.62501611 41.47575763 70.25278722 41.5012207 66.88037109 C41.51125406 64.59066139 41.52037929 62.30094752 41.52856445 60.01123047 C41.5505881 54.40501966 41.58403834 48.79896451 41.6262207 43.19287109 C41.04263794 43.20175354 40.45905518 43.21063599 39.85778809 43.2197876 C33.75791261 43.30860634 27.65822226 43.36874802 21.55786133 43.41259766 C19.28434786 43.43265426 17.0108856 43.45990647 14.73754883 43.49462891 C11.46072721 43.54340821 8.18459046 43.56590006 4.9074707 43.58349609 C3.39449402 43.61446381 3.39449402 43.61446381 1.85095215 43.64605713 C-5.43500656 43.64834918 -10.81666758 42.26242503 -16.3972168 37.44677734 C-16.84323242 36.88861328 -17.28924805 36.33044922 -17.7487793 35.75537109 C-18.21026367 35.19978516 -18.67174805 34.64419922 -19.1472168 34.07177734 C-22.84923942 28.40084459 -23.22097185 22.78508817 -22.3737793 16.19287109 C-20.11650192 9.06833938 -16.80961239 4.88751602 -10.3737793 1.19287109 C-6.85546035 0.02009811 -3.66221763 0.02209743 0 0 Z " fill="#000000" transform="translate(427.373779296875,-0.19287109375)"/>
<path d="M0 0 C0.75172485 -0.00511093 1.50344971 -0.01022186 2.2779541 -0.01548767 C4.75976554 -0.02937268 7.24129889 -0.02842756 9.72314453 -0.02612305 C11.45183414 -0.03001096 13.18052279 -0.03434583 14.90921021 -0.03910828 C18.5322784 -0.04656841 22.15524916 -0.04628099 25.77832031 -0.04101562 C30.41423761 -0.0352253 35.04975483 -0.0521423 39.685606 -0.0753603 C43.25617798 -0.09011565 46.82665406 -0.09096682 50.39725113 -0.08785057 C52.10602739 -0.08836301 53.81480913 -0.09358623 55.52355576 -0.10366249 C57.91700724 -0.11604289 60.30968526 -0.10922578 62.703125 -0.09765625 C63.75537766 -0.10912186 63.75537766 -0.10912186 64.82888794 -0.12081909 C70.75645681 -0.0577049 74.60247158 1.70925366 79.10595703 5.4621582 C84.18849461 11.48095271 86.20108063 16.64080779 85.85986328 24.59887695 C84.89046494 31.44462811 81.57945554 35.71256431 76.35986328 40.0480957 C72.52270586 42.5530176 69.0664053 43.52576875 64.50708008 43.50170898 C63.06615242 43.50148239 63.06615242 43.50148239 61.59611511 43.50125122 C60.57198013 43.49092865 59.54784515 43.48060608 58.49267578 43.4699707 C57.43434036 43.46714081 56.37600494 43.46431091 55.28559875 43.46139526 C51.91310205 43.4502211 48.54087316 43.42512128 45.16845703 43.3996582 C42.87874733 43.38962484 40.58903346 43.38049961 38.29931641 43.37231445 C32.6931056 43.3502908 27.08705045 43.31684057 21.48095703 43.2746582 C21.48983948 43.85824097 21.49872192 44.44182373 21.50787354 45.04309082 C21.59669228 51.1429663 21.65683396 57.24265665 21.70068359 63.34301758 C21.7207402 65.61653104 21.74799241 67.8899933 21.78271484 70.16333008 C21.83149415 73.4401517 21.853986 76.71628845 21.87158203 79.9934082 C21.89222717 81.00205933 21.91287231 82.01071045 21.93414307 83.04992676 C21.93643511 90.33588546 20.55051096 95.71754649 15.73486328 101.2980957 C15.17669922 101.74411133 14.61853516 102.19012695 14.04345703 102.6496582 C13.21007813 103.34188477 13.21007813 103.34188477 12.35986328 104.0480957 C6.68893053 107.75011833 1.0731741 108.12185076 -5.51904297 107.2746582 C-12.64357468 105.01738083 -16.82439805 101.71049129 -20.51904297 95.2746582 C-21.69181595 91.75633925 -21.68981664 88.56309653 -21.71191406 84.90087891 C-21.72009155 84.15251266 -21.72826904 83.40414642 -21.73669434 82.63310242 C-21.76151195 80.15555615 -21.77805714 77.67806715 -21.79248047 75.20043945 C-21.80046598 73.92873429 -21.80046598 73.92873429 -21.80861282 72.63133812 C-21.83533171 68.14176717 -21.85470854 63.65222387 -21.86914062 59.16259766 C-21.88246654 55.45433817 -21.91029553 51.7466307 -21.95117188 48.03857422 C-22.00059729 43.55465552 -22.02527396 39.07123657 -22.03236771 34.58705711 C-22.03906359 32.88267753 -22.05424226 31.17830837 -22.07825851 29.47408485 C-22.29211116 13.37735468 -22.29211116 13.37735468 -17.84463501 7.63298035 C-12.25012069 1.90033225 -7.92829599 -0.02783883 0 0 Z " fill="#000000" transform="translate(21.51904296875,-0.274658203125)"/>
<path d="M0 0 C5.52013044 3.08039076 8.60528998 6.87836995 10.625 12.9375 C10.74621967 15.3987187 10.81335849 17.83312671 10.83374023 20.29541016 C10.84352402 21.0421701 10.8533078 21.78893005 10.86338806 22.55831909 C10.89331213 25.03104889 10.91472326 27.50372451 10.93359375 29.9765625 C10.94016558 30.82311779 10.9467374 31.66967308 10.95350838 32.54188156 C10.98609451 37.02611368 11.01054295 41.51032217 11.0300293 45.99462891 C11.04781338 49.69615516 11.08258712 53.39691543 11.13256836 57.09814453 C11.19295521 61.57561099 11.22353053 66.05236958 11.23320198 70.53022385 C11.24172913 72.23101413 11.26047938 73.9317869 11.2899456 75.63234329 C11.55276737 91.66844574 11.55276737 91.66844574 6.22694397 98.35165405 C0.83501389 103.68940033 -4.21434218 105.08669317 -11.6887207 105.09863281 C-12.80145859 105.10608017 -12.80145859 105.10608017 -13.93667603 105.11367798 C-16.39138721 105.1282853 -18.84603374 105.1350995 -21.30078125 105.140625 C-23.00847882 105.146378 -24.71617637 105.15213572 -26.4238739 105.15789795 C-30.00581157 105.16840412 -33.58772682 105.17424918 -37.16967773 105.17773438 C-41.75291151 105.18321574 -46.3358477 105.20723764 -50.91898823 105.23570633 C-54.4475134 105.25435814 -57.97596728 105.25953968 -61.50453758 105.26107025 C-63.19378472 105.264092 -64.88303074 105.27210438 -66.57222939 105.28525543 C-68.93941301 105.30236804 -71.30587481 105.30042316 -73.6730957 105.29394531 C-74.36681778 105.3031601 -75.06053986 105.31237488 -75.77528381 105.3218689 C-81.67999338 105.27141767 -85.5159103 103.48674141 -90 99.75 C-95.08253758 93.73120549 -97.0951236 88.57135041 -96.75390625 80.61328125 C-95.78450791 73.76753009 -92.47349851 69.49959389 -87.25390625 65.1640625 C-83.41674883 62.65914061 -79.96044827 61.68638946 -75.40112305 61.71044922 C-74.44050461 61.71060028 -73.47988617 61.71075134 -72.49015808 61.71090698 C-71.4660231 61.72122955 -70.44188812 61.73155212 -69.38671875 61.7421875 C-67.79921562 61.74643234 -67.79921562 61.74643234 -66.17964172 61.75076294 C-62.80714502 61.7619371 -59.43491613 61.78703693 -56.0625 61.8125 C-53.7727903 61.82253336 -51.48307643 61.83165859 -49.19335938 61.83984375 C-43.58714857 61.8618674 -37.98109342 61.89531764 -32.375 61.9375 C-32.38388245 61.35391724 -32.39276489 60.77033447 -32.4019165 60.16906738 C-32.49073525 54.06919191 -32.55087693 47.96950156 -32.59472656 41.86914062 C-32.61478317 39.59562716 -32.64203538 37.3221649 -32.67675781 35.04882812 C-32.72553712 31.77200651 -32.74802897 28.49586975 -32.765625 25.21875 C-32.78627014 24.21009888 -32.80691528 23.20144775 -32.82818604 22.16223145 C-32.83047808 14.87627274 -31.44455393 9.49461172 -26.62890625 3.9140625 C-26.07074219 3.46804688 -25.51257813 3.02203125 -24.9375 2.5625 C-24.38191406 2.10101563 -23.82632813 1.63953125 -23.25390625 1.1640625 C-16.04505584 -3.54192301 -7.71848698 -3.50735432 0 0 Z " fill="#000000" transform="translate(501.375,407.0625)"/>
<path d="M0 0 C5.80274294 3.36010988 9.5017782 8.15812993 11.6875 14.4375 C11.92800903 16.86103821 11.92800903 16.86103821 11.91455078 19.41137695 C11.91439972 20.37199539 11.91424866 21.33261383 11.91409302 22.32234192 C11.90377045 23.3464769 11.89344788 24.37061188 11.8828125 25.42578125 C11.8799826 26.48411667 11.87715271 27.54245209 11.87423706 28.63285828 C11.8630629 32.00535498 11.83796307 35.37758387 11.8125 38.75 C11.80246664 41.0397097 11.79334141 43.32942357 11.78515625 45.61914062 C11.7631326 51.22535143 11.72968236 56.83140658 11.6875 62.4375 C12.27108276 62.42861755 12.85466553 62.41973511 13.45593262 62.4105835 C19.55580809 62.32176475 25.65549844 62.26162307 31.75585938 62.21777344 C34.02937284 62.19771683 36.3028351 62.17046462 38.57617188 62.13574219 C41.85299349 62.08696288 45.12913025 62.06447103 48.40625 62.046875 C49.91922668 62.01590729 49.91922668 62.01590729 51.46276855 61.98431396 C58.74872726 61.98202192 64.13038828 63.36794607 69.7109375 68.18359375 C70.15695313 68.74175781 70.60296875 69.29992187 71.0625 69.875 C71.75472656 70.70837891 71.75472656 70.70837891 72.4609375 71.55859375 C76.16296013 77.2295265 76.53469256 82.84528293 75.6875 89.4375 C73.43022262 96.56203171 70.12333309 100.74285508 63.6875 104.4375 C60.19365171 105.6021161 57.0411016 105.60046951 53.40551758 105.61450195 C52.29759857 105.62435875 52.29759857 105.62435875 51.16729736 105.63441467 C48.72220758 105.65412815 46.27717925 105.6658075 43.83203125 105.67578125 C42.99526037 105.67985678 42.15848949 105.6839323 41.29636192 105.68813133 C36.86513898 105.70898636 32.43394694 105.72328906 28.00268555 105.73266602 C23.43749441 105.74371361 18.87279296 105.7780958 14.30777454 105.81783772 C10.78774646 105.84405341 7.26783402 105.85236235 3.7477169 105.85594749 C2.06568797 105.86080271 0.38366383 105.87238625 -1.29826927 105.89098549 C-17.63607349 106.06038538 -17.63607349 106.06038538 -24.3125 101.4375 C-26.37109375 99.40234375 -26.37109375 99.40234375 -27.75 97.375 C-28.45962891 96.36759766 -28.45962891 96.36759766 -29.18359375 95.33984375 C-31.54875703 91.35425718 -31.46647245 87.60626176 -31.47363281 83.1237793 C-31.47859772 82.38195404 -31.48356262 81.64012878 -31.48867798 80.87582397 C-31.5032853 78.42111279 -31.5100995 75.96646626 -31.515625 73.51171875 C-31.521378 71.80402118 -31.52713572 70.09632363 -31.53289795 68.3886261 C-31.54340412 64.80668843 -31.54924918 61.22477318 -31.55273438 57.64282227 C-31.55821574 53.05958849 -31.58223764 48.4766523 -31.61070633 43.89351177 C-31.62935814 40.3649866 -31.63453968 36.83653272 -31.63607025 33.30796242 C-31.639092 31.61871528 -31.64710438 29.92946926 -31.66025543 28.24027061 C-31.67736804 25.87308699 -31.67542316 23.50662519 -31.66894531 21.1394043 C-31.6781601 20.44568222 -31.68737488 19.75196014 -31.6968689 19.03721619 C-31.64641767 13.13250662 -29.86174141 9.2965897 -26.125 4.8125 C-18.47832701 -1.64469053 -9.57973876 -4.23120393 0 0 Z " fill="#000000" transform="translate(31.3125,406.5625)"/>
</svg>
