<?xml version="1.0" encoding="UTF-8"?>
<svg version="1.1" xmlns="http://www.w3.org/2000/svg" width="512" height="512">
<path d="M0 0 C1.42283787 0.21763806 2.84577308 0.43464054 4.26879883 0.65104675 C7.22114861 1.10245493 10.17222189 1.56125693 13.12255859 2.02563477 C16.8905184 2.61810704 20.66106549 3.19177267 24.43273926 3.76006031 C27.35934595 4.2030866 30.2843849 4.65583558 33.20904541 5.11151695 C34.59916807 5.32695133 35.98975087 5.5394395 37.38079834 5.74881935 C39.32179003 6.04248923 41.26056782 6.35067911 43.19921875 6.65942383 C44.29838623 6.83041092 45.39755371 7.00139801 46.5300293 7.17756653 C52.14183283 8.52006447 56.71030303 10.91630068 60.2175293 15.50708008 C66.67865253 26.57448545 66.46664886 44.57541293 68.26928711 56.9987793 C68.81398397 60.74066311 69.37058117 64.48065624 69.92773438 68.22070312 C70.27936996 70.62619634 70.6303059 73.03179196 70.98046875 75.4375 C71.14604782 76.54188919 71.31162689 77.64627838 71.48222351 78.78413391 C72.16772718 83.57623693 72.76746753 88.35935515 72.9777832 93.19799805 C73.02513359 94.2820417 73.02513359 94.2820417 73.07344055 95.38798523 C71.34537752 105.13726184 63.68117068 111.41376092 56.98260498 118.04138184 C55.76560716 119.26012512 54.5494892 120.47974752 53.33417439 121.70016909 C50.00008373 125.04318833 46.65367576 128.37363281 43.30509853 131.7021327 C39.69325298 135.29668732 36.09299192 138.90281219 32.49130249 142.50753784 C26.25221707 148.74871958 20.00585598 154.98254194 13.75447845 161.21141052 C4.71607822 170.21728793 -4.31124263 179.23420428 -13.33590683 188.25384384 C-27.9784935 202.88767833 -42.62998856 217.51255981 -57.28710938 232.13183594 C-71.52421925 246.33222379 -85.75711748 260.53681117 -99.984375 274.74707031 C-100.86150081 275.62314522 -101.73862661 276.49922014 -102.64233199 277.40184277 C-107.04263519 281.79692578 -111.44285575 286.19209152 -115.84303522 290.58729839 C-152.34088633 327.04368983 -188.8532066 363.48556368 -225.375 399.91796875 C-228.65407168 398.35924555 -230.83950075 396.69720501 -233.40917969 394.11083984 C-234.18968689 393.33018158 -234.97019409 392.54952332 -235.77435303 391.74520874 C-236.60678528 390.90245392 -237.43921753 390.0596991 -238.296875 389.19140625 C-239.15686096 388.32859039 -240.01684692 387.46577454 -240.90289307 386.57681274 C-243.6483231 383.82018846 -246.3867169 381.05669076 -249.125 378.29296875 C-250.98521783 376.42272018 -252.84588946 374.55292286 -254.70703125 372.68359375 C-259.26829945 368.10027515 -263.82381011 363.51129397 -268.375 358.91796875 C-263.37955064 352.88496924 -257.96148672 347.37478352 -252.41047668 341.8533783 C-251.40076558 340.84538166 -250.39128099 339.83715809 -249.38200206 338.82872874 C-246.62160032 336.07189751 -243.85810246 333.31818854 -241.09409392 330.56497419 C-238.10860418 327.59000483 -235.12607156 324.61207358 -232.14323425 321.63444519 C-226.97843066 316.47933561 -221.81196075 311.32590102 -216.64451027 306.17344475 C-208.47765461 298.02999433 -200.31601273 289.8813295 -192.15519714 281.73182678 C-189.36132462 278.94195522 -186.56741824 276.15211756 -183.7735014 273.36229038 C-183.07538481 272.66519303 -182.37726823 271.96809567 -181.6579966 271.24987416 C-173.71924224 263.32285231 -165.77941401 255.39690646 -157.83911133 247.47143555 C-157.11358126 246.74725792 -156.3880512 246.02308028 -155.64053538 245.27695788 C-143.87027077 233.52889729 -132.09617853 221.78467855 -120.32112578 210.04141741 C-108.2277066 197.98037042 -96.14003773 185.91358058 -84.05728453 173.84184843 C-76.60580719 166.39759808 -69.14962228 158.95812591 -61.68734088 151.52470554 C-56.5775015 146.43384303 -51.47311021 141.33756065 -46.37299589 136.23695558 C-43.42962666 133.29364944 -40.48384274 130.35286892 -37.53146744 127.41859436 C-34.82901286 124.73261191 -32.13356185 122.03980282 -29.44351622 119.34139437 C-28.00754239 117.90457442 -26.56415058 116.47517992 -25.12051135 115.04606193 C-24.26828988 114.18848401 -23.41606841 113.33090609 -22.53802204 112.44734097 C-21.80119955 111.71219971 -21.06437707 110.97705846 -20.30522662 110.2196402 C-17.63750467 107.03855287 -15.57080188 103.75361141 -15.125 99.57421875 C-15.79057072 93.83367131 -17.0622212 90.84738943 -21.375 86.91796875 C-25.97061887 84.62015932 -29.45752209 84.47663902 -34.375 85.91796875 C-41.06179287 90.82193877 -46.80199867 97.20643306 -52.63818359 103.06089783 C-53.65545108 104.07772849 -54.6729386 105.09433906 -55.69062519 106.11075026 C-58.46818085 108.88608279 -61.2426305 111.66450183 -64.01655746 114.44346058 C-67.01530825 117.4465472 -70.01696643 120.44672542 -73.01826477 123.44726562 C-78.21175961 128.64023721 -83.40342665 133.8350303 -88.59384155 139.03108025 C-96.09822781 146.54360842 -103.60538797 154.05335965 -111.11321867 161.56244535 C-123.29537346 173.74678644 -135.47529541 185.93335701 -147.65380859 198.12133789 C-159.48108447 209.95779882 -171.30941468 221.79320451 -183.13916016 233.62719727 C-183.86887228 234.35717212 -184.59858441 235.08714697 -185.35040903 235.83924227 C-189.01132419 239.50146251 -192.67226004 243.16366206 -196.33320618 246.82585132 C-226.68367949 277.18668408 -257.03052729 307.5511387 -287.375 337.91796875 C-290.61117306 336.37749452 -292.78132246 334.75560414 -295.31738281 332.20263672 C-296.45811249 331.06168045 -296.45811249 331.06168045 -297.62188721 329.89767456 C-298.43244568 329.07679352 -299.24300415 328.25591248 -300.078125 327.41015625 C-301.33480988 326.14922653 -301.33480988 326.14922653 -302.61688232 324.86282349 C-305.29098431 322.17752874 -307.95804724 319.4853622 -310.625 316.79296875 C-312.43704062 314.9708972 -314.24953518 313.14927698 -316.0625 311.328125 C-320.50528036 306.86329623 -324.94230165 302.39280592 -329.375 297.91796875 C-327.75218451 293.82972125 -324.82206619 291.09465876 -321.75276184 288.06195068 C-321.17204396 287.48022952 -320.59132609 286.89850836 -319.9930107 286.29915929 C-318.04408286 284.34927816 -316.08809384 282.40663811 -314.13208008 280.46386719 C-312.7338571 279.06784532 -311.33608148 277.67137526 -309.9387207 276.27449036 C-306.92687843 273.26558337 -303.91190368 270.25986307 -300.89447975 267.25655365 C-296.11964901 262.5039847 -291.35191208 257.74434209 -286.58512878 252.98370361 C-279.03954816 245.4495114 -271.48931313 237.92000334 -263.93704385 230.39251637 C-250.4272742 216.92701129 -236.92298382 203.45601697 -223.42399138 189.97970796 C-218.68847839 185.252583 -213.95017098 180.52828241 -209.20957053 175.80625963 C-206.25336455 172.86073659 -203.299221 169.91315137 -200.34557343 166.9650631 C-198.98034975 165.60329479 -197.61425586 164.24239822 -196.24720573 162.88246346 C-187.52002469 154.20363917 -187.52002469 154.20363917 -179.28780842 145.06109428 C-174.31630438 139.49098222 -168.91590159 134.30184597 -163.64038086 129.0222168 C-162.24989622 127.62709693 -160.85960709 126.2317822 -159.46949768 124.83628845 C-155.71182137 121.06556344 -151.95087724 117.29811513 -148.18890071 113.53168082 C-145.83703427 111.17687451 -143.48575222 108.82148619 -141.13464546 106.4659214 C-133.77290262 99.09053027 -126.40917966 91.71712476 -119.04254526 84.34661931 C-110.54717655 75.846761 -102.05840351 67.34038709 -93.57525724 58.8283307 C-87.00797103 52.2394424 -80.43494538 45.65631612 -73.85751826 39.07755119 C-69.93246541 35.15145028 -66.00988117 31.2229563 -62.09324455 27.28845787 C-58.41359393 23.59234979 -54.72687584 19.90344177 -51.0345974 16.21994972 C-49.68154562 14.86766926 -48.331054 13.51282157 -46.98333359 12.15522766 C-45.14251732 10.30171877 -43.29267276 8.45770988 -41.44029236 6.61576843 C-40.6448982 5.80828967 -40.6448982 5.80828967 -39.83343548 4.9844982 C-28.68376936 -6.01888337 -14.15049466 -2.23147117 0 0 Z " fill="#000000" transform="translate(439.375,2.08203125)"/>
<path d="M0 0 C1.89149682 1.72046756 3.7367218 3.4926361 5.54293823 5.3024292 C6.06667593 5.82445805 6.59041363 6.3464869 7.13002217 6.8843348 C8.8712461 8.62228323 10.60525817 10.36724759 12.33935547 12.11230469 C13.5910263 13.36454006 14.84313847 14.61633442 16.09565735 15.86772156 C19.48605003 19.25754137 22.87024888 22.65348397 26.25335836 26.05057049 C29.79317822 29.60290861 33.33867782 33.14956868 36.88357544 36.69683838 C43.5916368 43.41111127 50.29458438 50.13046529 56.99570382 56.85166574 C64.62656734 64.50489839 72.2631233 72.1524402 79.9001596 79.79951239 C95.60644274 95.52669013 111.30557366 111.26099072 127 127 C125.46913374 130.20923593 123.85158409 132.41436642 121.34814453 134.95825195 C120.60041779 135.72196609 119.85269104 136.48568024 119.08230591 137.27253723 C117.86980667 138.49308052 117.86980667 138.49308052 116.6328125 139.73828125 C115.80167938 140.57844284 114.97054626 141.41860443 114.11422729 142.28422546 C112.35672777 144.05622329 110.5964106 145.82543033 108.83349609 147.59204102 C106.13005175 150.30742594 103.44581526 153.04089663 100.76171875 155.77539062 C99.05323477 157.49333337 97.34363673 159.21016905 95.6328125 160.92578125 C94.82852814 161.74959793 94.02424377 162.57341461 93.19558716 163.42219543 C92.44155609 164.17014877 91.68752502 164.91810211 90.91064453 165.6887207 C90.25049347 166.35394241 89.59034241 167.01916412 88.91018677 167.70454407 C87 169 87 169 85.10313892 168.78220558 C82.58273263 167.8448087 81.3282486 166.68998813 79.43959045 164.78016663 C78.75135696 164.09172165 78.06312347 163.40327667 77.35403442 162.69396973 C76.23724808 161.55393494 76.23724808 161.55393494 75.09790039 160.39086914 C74.30555496 159.59414291 73.51320953 158.79741669 72.69685364 157.97654724 C70.97584717 156.24411679 69.25831556 154.50822912 67.54384041 152.76933479 C64.83137156 150.01864208 62.1096981 147.27737195 59.38536072 144.53843689 C53.11124568 138.22707651 46.85111169 131.90193202 40.59165192 125.57604218 C34.40094591 119.31995666 28.20440247 113.06982121 21.99755669 106.82974052 C19.3142104 104.12692125 16.6400485 101.41523267 13.96607971 98.70314026 C12.32166302 97.04782629 10.67682384 95.39293187 9.03149414 93.73852539 C8.28899414 92.98052643 7.54649414 92.22252747 6.78149414 91.44155884 C6.09044083 90.75029404 5.39938751 90.05902924 4.68739319 89.34681702 C4.09250123 88.74526322 3.49760927 88.14370943 2.88469028 87.52392673 C-0.59682457 84.70883631 -4.00727162 83.62816388 -8.4375 84.0625 C-13.30713738 84.73725777 -15.63632216 86.46813827 -19 90 C-19.8951052 92.6853156 -20.22112649 94.52801263 -20.3125 97.3125 C-20.34988281 98.05113281 -20.38726562 98.78976563 -20.42578125 99.55078125 C-19.23878197 106.37874956 -12.80604197 111.46645067 -8.11035156 116.11669922 C-7.31972824 116.90761459 -6.52910492 117.69852997 -5.71452332 118.51341248 C-3.11127183 121.11527541 -0.50101739 123.70999061 2.109375 126.3046875 C3.92013435 128.11171504 5.73045138 129.9191859 7.54034424 131.7270813 C11.81123862 135.99113082 16.08655378 140.25069782 20.36406636 144.50810444 C25.23623042 149.35786639 30.10267527 154.2133501 34.96866179 159.069309 C44.97278292 169.05255944 54.98402041 179.02864794 65 189 C63.45952577 192.23617306 61.83763539 194.40632246 59.28466797 196.94238281 C58.52403046 197.70286926 57.76339294 198.46335571 56.97970581 199.24688721 C56.15882477 200.05744568 55.33794373 200.86800415 54.4921875 201.703125 C53.65156769 202.54091492 52.81094788 203.37870483 51.94485474 204.24188232 C49.25955999 206.91598431 46.56739345 209.58304724 43.875 212.25 C42.05292845 214.06204062 40.23130823 215.87453518 38.41015625 217.6875 C33.94532748 222.13028036 29.47483717 226.56730165 25 231 C21.11756053 229.40624131 18.65935759 226.910935 15.71102905 223.96499634 C15.19041134 223.4474986 14.66979362 222.93000087 14.13339961 222.39682138 C12.39062216 220.66201944 10.65507858 218.92015835 8.91943359 217.17822266 C7.67128748 215.9327866 6.42271628 214.68777641 5.17375183 213.44316101 C1.78290019 210.06143387 -1.60158624 206.67340239 -4.98470736 203.28394365 C-8.5241979 199.73939346 -12.06856114 196.19972122 -15.6121521 192.65927124 C-21.56242237 186.71264071 -27.50846065 180.761803 -33.45214844 174.80859375 C-40.3262181 167.92363954 -47.20746319 161.04592002 -54.0924803 154.1719147 C-60.00111167 148.27235595 -65.90584061 142.36891265 -71.80731905 136.46219862 C-75.33311847 132.93327936 -78.86025946 129.40572954 -82.39091873 125.88167191 C-85.70980253 122.56856054 -89.02376481 119.25060415 -92.33397484 115.92882729 C-93.55048638 114.70966863 -94.76870793 113.49221357 -95.98874474 112.27658272 C-97.65215962 110.61862255 -99.30930773 108.95464166 -100.96499634 107.28897095 C-101.89449915 106.35871408 -102.82400196 105.42845722 -103.78167152 104.47001076 C-109.0674306 98.58455154 -108.39964742 92.57619796 -108.11729431 85.05103683 C-107.78593699 79.25684222 -106.86308841 73.54216678 -105.953125 67.81640625 C-105.73790289 66.42220688 -105.52329633 65.02791236 -105.30926514 63.63352966 C-104.86276996 60.74249151 -104.40803566 57.85290749 -103.94726562 54.96411133 C-103.36096614 51.28311237 -102.79739683 47.59903798 -102.24003983 43.91355991 C-101.80350127 41.04568782 -101.35425798 38.17991348 -100.90132904 35.31458855 C-100.68840015 33.95699785 -100.47948236 32.59877103 -100.27487946 31.23990059 C-97.78365271 14.79751929 -97.78365271 14.79751929 -91.60180664 8.59301758 C-80.9996382 2.1015895 -63.79550884 2.1549722 -51.6965332 0.35571289 C-48.07260163 -0.18599002 -44.45143494 -0.74411169 -40.83007812 -1.30273438 C-8.52692341 -6.19432721 -8.52692341 -6.19432721 0 0 Z " fill="#000000" transform="translate(108,4)"/>
<path d="M0 0 C9.3045255 7.74635138 17.77364168 16.39736696 26.36962891 24.90966797 C28.44736116 26.96517328 30.53439357 29.01046887 32.63037109 31.04736328 C35.18967749 33.534733 37.730574 36.03966174 40.26023865 38.55715942 C41.67040995 39.95217933 43.09769812 41.32983063 44.5255127 42.70678711 C55.53198611 53.74710173 60.29066292 65.22472336 60.31689453 80.64599609 C60.15129367 91.40187444 56.59286735 99.56241308 50 108 C49.52175781 108.61617188 49.04351562 109.23234375 48.55078125 109.8671875 C42.643553 116.56303816 31.99213646 122.38843058 22.97631836 123.17700195 C7.08894807 123.63269044 -4.53028579 121.54379279 -16.6963501 110.56729126 C-19.70069123 107.64481467 -22.65688202 104.68141309 -25.59765625 101.6953125 C-26.68272368 100.60463729 -27.76846467 99.5146318 -28.85484314 98.42526245 C-31.68746426 95.58128556 -34.51095203 92.7284122 -37.33251953 89.87347412 C-40.22329176 86.95179927 -43.12276798 84.03878947 -46.02148438 81.125 C-51.68945739 75.42502677 -57.34779404 69.71560835 -63 64 C-59.20301491 59.46479694 -55.28288646 55.13986003 -51.08642578 50.97290039 C-50.5295961 50.41592468 -49.97276642 49.85894897 -49.39906311 49.28509521 C-47.58351 47.47023101 -45.76445606 45.65892089 -43.9453125 43.84765625 C-42.67571469 42.57992626 -41.40633952 41.31197327 -40.13717651 40.04380798 C-36.81532426 36.72575224 -33.49047867 33.41071211 -30.16497803 30.09631348 C-26.76440491 26.70601645 -23.36670263 23.31284494 -19.96875 19.91992188 C-13.31528981 13.27714838 -6.65866041 6.63756054 0 0 Z " fill="#000000" transform="translate(452,389)"/>
<path d="M0 0 C4.53520306 3.79698509 8.86013997 7.71711354 13.02709961 11.91357422 C13.86256317 12.74881874 13.86256317 12.74881874 14.71490479 13.60093689 C16.52976899 15.41649 18.34107911 17.23554394 20.15234375 19.0546875 C21.42007374 20.32428531 22.68802673 21.59366048 23.95619202 22.86282349 C27.27424776 26.18467574 30.58928789 29.50952133 33.90368652 32.83502197 C37.29398355 36.23559509 40.68715506 39.63329737 44.08007812 43.03125 C50.72285162 49.68471019 57.36243946 56.34133959 64 63 C59.00977351 69.00575086 53.63763985 74.55552895 48.140625 80.09765625 C47.67317619 80.56918058 47.20572739 81.04070492 46.72411346 81.52651787 C44.25162922 84.01971741 41.77598381 86.50972932 39.29785156 88.99731445 C36.76350777 91.54272392 34.24107217 94.09960383 31.72110367 96.65923405 C29.75793402 98.6487444 27.78574233 100.62913062 25.8111496 102.6072979 C24.43008833 103.99548918 23.05867068 105.39325371 21.68756104 106.79127502 C12.21158738 116.23504274 1.72799766 123.26507155 -11.98876953 123.46826172 C-12.77622559 123.45811035 -13.56368164 123.44795898 -14.375 123.4375 C-15.20499512 123.42992676 -16.03499023 123.42235352 -16.89013672 123.41455078 C-27.50089867 123.13068544 -35.68039274 119.50068172 -44 113 C-44.61617187 112.52175781 -45.23234375 112.04351562 -45.8671875 111.55078125 C-52.56303816 105.643553 -58.38843058 94.99213646 -59.17700195 85.97631836 C-59.63269044 70.08894807 -57.54379279 58.46971421 -46.56729126 46.3036499 C-43.64481467 43.29930877 -40.68141309 40.34311798 -37.6953125 37.40234375 C-36.60463729 36.31727632 -35.5146318 35.23153533 -34.42526245 34.14515686 C-31.58128556 31.31253574 -28.7284122 28.48904797 -25.87347412 25.66748047 C-22.95179927 22.77670824 -20.03878947 19.87723202 -17.125 16.97851562 C-11.42502677 11.31054261 -5.71560835 5.65220596 0 0 Z " fill="#000000" transform="translate(59,389)"/>
<path d="M0 0 C3.09351982 2.65708964 5.49498063 5.79517984 8 9 C8.89710897 10.09353915 9.79560978 11.18593759 10.6953125 12.27734375 C11.61123589 13.41256361 12.52531652 14.54927284 13.4375 15.6875 C13.87489502 16.22149414 14.31229004 16.75548828 14.76293945 17.30566406 C17.49561071 20.80928296 18.95802771 23.52095748 19 28 C17.07892104 31.73923061 14.71672914 34.5374999 11.76260376 37.50482178 C10.46726967 38.81295082 10.46726967 38.81295082 9.14576721 40.14750671 C8.1918502 41.10072481 7.23782119 42.05383082 6.28369141 43.00683594 C5.27619643 44.02031923 4.26911156 45.03421034 3.2624054 46.04847717 C0.53373372 48.79477892 -2.20135978 51.53459629 -4.9382205 54.27273464 C-6.64816641 55.98410368 -8.3566797 57.69688951 -10.06468582 59.4101944 C-16.02407146 65.38806597 -21.9885848 71.36076524 -27.95800781 77.32861328 C-33.52203016 82.89143259 -39.07478532 88.46532563 -44.62240541 94.04449821 C-49.38819795 98.83642806 -54.16165558 103.6206295 -58.94117415 108.3988688 C-61.79475363 111.25193817 -64.64513632 114.10803209 -67.48786545 116.9719162 C-70.15978622 119.66317796 -72.84111169 122.3446976 -75.52999306 125.01901054 C-76.51505829 126.00198188 -77.49671646 126.98838119 -78.47467995 127.97841835 C-79.81006078 129.32921206 -81.15903007 130.66653201 -82.50863647 132.00311279 C-83.25968847 132.75525433 -84.01074047 133.50739586 -84.78455162 134.28232956 C-87.26981318 136.20919022 -88.89109771 136.72155197 -92 137 C-96.71884457 135.79321352 -100.16016881 132.75781655 -103.875 129.75 C-104.49270264 129.25636963 -105.11040527 128.76273926 -105.74682617 128.25415039 C-118.6350404 117.91603791 -118.6350404 117.91603791 -119.5 113.375 C-118.25194063 104.95059924 -107.68125528 97.53315073 -101.88964844 91.74438477 C-100.8883729 90.74011057 -99.88730038 89.73563391 -98.88641357 88.73097229 C-96.19077623 86.02657198 -93.49197114 83.32535529 -90.79226971 80.62501264 C-89.10432307 78.93635219 -87.41709169 77.24698045 -85.73011017 75.55735588 C-79.84179706 69.65982159 -73.95093746 63.76484506 -68.05761719 57.87231445 C-62.5662569 52.38155715 -57.08052408 46.88522116 -51.59734321 41.38629681 C-46.88143422 36.65733071 -42.1616967 31.93220915 -37.43893456 27.21008724 C-34.62136286 24.39277066 -31.80537058 21.57391826 -28.99321747 18.75119209 C-26.35461575 16.1029379 -23.7112943 13.45948905 -21.06421661 10.81970787 C-20.09295956 9.84949955 -19.12341564 8.87757283 -18.15570068 7.90383148 C-16.8370759 6.57752627 -15.51170306 5.25794012 -14.18597412 3.93873596 C-13.44564816 3.19786523 -12.70532219 2.4569945 -11.9425621 1.69367313 C-8.05874274 -1.69253547 -4.75271163 -1.4024395 0 0 Z " fill="#000000" transform="translate(435,317)"/>
<path d="M0 0 C6.71189352 4.82028635 12.43872832 11.29658289 18.25561523 17.1262207 C19.25988019 18.1291277 20.26435712 19.13182247 21.26902771 20.13432312 C23.97334248 22.83411414 26.67452721 25.53701592 29.37498736 28.24066186 C32.20772155 31.07594174 35.04291049 33.90876531 37.87770081 36.74198914 C42.62949405 41.4919689 47.37918748 46.24404069 52.12768555 50.99731445 C57.61999358 56.49508236 63.11592013 61.98921325 68.61370319 67.48150569 C73.34094638 72.20421672 78.06624549 76.92886625 82.78991276 81.65515393 C85.60851005 84.475311 88.42778062 87.29478607 91.24880791 90.11251259 C93.89489654 92.7557204 96.53854191 95.40134745 99.18029213 98.04889107 C100.15137745 99.02130204 101.12332105 99.99285676 102.09616852 100.96350479 C103.42017264 102.28479032 104.74081561 103.60944142 106.06126404 104.9342804 C106.80213477 105.67552815 107.5430055 106.41677591 108.30632687 107.18048573 C110.44379463 109.47676889 110.9484568 110.62201654 111.375 113.75 C110.75767832 119.10012123 106.90950928 122.40096009 102.84375 125.6328125 C101.73448686 126.47063243 100.61983444 127.30136307 99.5 128.125 C98.38510633 128.96052356 97.27051864 129.79645557 96.15625 130.6328125 C95.1146875 131.41398438 94.073125 132.19515625 93 133 C92.2265625 133.76054687 91.453125 134.52109375 90.65625 135.3046875 C87.40442109 137.38011948 85.38317044 137.73694256 81.56594849 137.64172745 C75.96661793 136.24137038 72.2635709 131.46916545 68.35546875 127.45654297 C67.32318142 126.42990732 66.28895262 125.4052207 65.25294495 124.38233948 C62.45363374 121.6069153 59.68319601 118.80423261 56.91783142 115.99503469 C54.01687245 113.05632727 51.09233006 110.14126029 48.17089844 107.22293091 C43.27006774 102.3201755 38.38712375 97.40016 33.51513672 92.46875 C27.88445493 86.76968984 22.22960801 81.09555343 16.56042576 75.43480766 C11.10272255 69.98463277 5.6593979 64.52033366 0.22354126 59.04837418 C-2.08815275 56.72145585 -4.40421008 54.3990133 -6.7237854 52.07995224 C-9.45415849 49.34844769 -12.17152484 46.60461989 -14.87938118 43.85079765 C-15.87441162 42.84277688 -16.87369398 41.83893278 -17.87750053 40.83965111 C-19.24796835 39.47388785 -20.60149181 38.0911847 -21.95410156 36.70773315 C-22.71579651 35.93895781 -23.47749146 35.17018246 -24.26226807 34.37811089 C-26.35761737 31.51059553 -26.81401683 29.52719859 -27 26 C-24.30965316 20.02223195 -20.11797779 15.19278649 -15.9375 10.1875 C-15.31294922 9.42501953 -14.68839844 8.66253906 -14.04492188 7.87695312 C-6.59174832 -1.11935349 -6.59174832 -1.11935349 0 0 Z " fill="#000000" transform="translate(85,316)"/>
<path d="M0 0 C3.52344644 1.6586188 5.79901878 3.56657308 8.546875 6.3515625 C9.81337891 7.62773437 9.81337891 7.62773437 11.10546875 8.9296875 C12.41451172 10.26386719 12.41451172 10.26386719 13.75 11.625 C14.63816406 12.5221875 15.52632813 13.419375 16.44140625 14.34375 C18.63216969 16.55807004 20.81812763 18.77692435 23 21 C21.55419034 24.31613882 19.75170208 26.49185728 17.19287109 29.03417969 C16.41221283 29.81468689 15.63155457 30.59519409 14.82723999 31.39935303 C13.98448517 32.23178528 13.14173035 33.06421753 12.2734375 33.921875 C11.41062164 34.78186096 10.54780579 35.64184692 9.65884399 36.52789307 C6.90221971 39.2733231 4.13872201 42.0117169 1.375 44.75 C-0.49524857 46.61021783 -2.36504589 48.47088946 -4.234375 50.33203125 C-8.8176936 54.89329945 -13.40667478 59.44881011 -18 64 C-21.8488174 60.7498913 -25.63349881 57.49349707 -29.18359375 53.9140625 C-30.23256836 52.86025391 -30.23256836 52.86025391 -31.30273438 51.78515625 C-32.35944336 50.71587891 -32.35944336 50.71587891 -33.4375 49.625 C-34.16904297 48.88894531 -34.90058594 48.15289062 -35.65429688 47.39453125 C-37.43852723 45.59863926 -39.22036124 43.80044015 -41 42 C-36.5021065 36.60809603 -31.73873458 31.60608316 -26.7578125 26.66015625 C-25.98944061 25.89319931 -25.22106873 25.12624237 -24.42941284 24.33604431 C-21.99696491 21.9091526 -19.56104678 19.48577873 -17.125 17.0625 C-15.46591448 15.40843514 -13.80705798 13.75414055 -12.1484375 12.09960938 C-8.10160291 8.06374567 -4.05192047 4.03075723 0 0 Z " fill="#000000" transform="translate(379,277)"/>
<path d="M0 0 C3.52344644 1.6586188 5.79901878 3.56657308 8.546875 6.3515625 C9.81337891 7.62773437 9.81337891 7.62773437 11.10546875 8.9296875 C12.41451172 10.26386719 12.41451172 10.26386719 13.75 11.625 C14.63816406 12.5221875 15.52632813 13.419375 16.44140625 14.34375 C18.63216969 16.55807004 20.81812763 18.77692435 23 21 C21.56741228 24.27196452 19.81174684 26.43203956 17.28466797 28.94238281 C16.52403046 29.70286926 15.76339294 30.46335571 14.97970581 31.24688721 C14.15882477 32.05744568 13.33794373 32.86800415 12.4921875 33.703125 C11.65156769 34.54091492 10.81094788 35.37870483 9.94485474 36.24188232 C7.25955999 38.91598431 4.56739345 41.58304724 1.875 44.25 C0.05292845 46.06204062 -1.76869177 47.87453518 -3.58984375 49.6875 C-8.05467252 54.13028036 -12.52516283 58.56730165 -17 63 C-20.52344644 61.3413812 -22.79901878 59.43342692 -25.546875 56.6484375 C-26.39121094 55.79765625 -27.23554688 54.946875 -28.10546875 54.0703125 C-28.97816406 53.18085938 -29.85085938 52.29140625 -30.75 51.375 C-32.08224609 50.02921875 -32.08224609 50.02921875 -33.44140625 48.65625 C-35.63216969 46.44192996 -37.81812763 44.22307565 -40 42 C-38.56741228 38.72803548 -36.81174684 36.56796044 -34.28466797 34.05761719 C-33.52403046 33.29713074 -32.76339294 32.53664429 -31.97970581 31.75311279 C-31.15882477 30.94255432 -30.33794373 30.13199585 -29.4921875 29.296875 C-28.65156769 28.45908508 -27.81094788 27.62129517 -26.94485474 26.75811768 C-24.25955999 24.08401569 -21.56739345 21.41695276 -18.875 18.75 C-17.05292845 16.93795938 -15.23130823 15.12546482 -13.41015625 13.3125 C-8.94532748 8.86971964 -4.47483717 4.43269835 0 0 Z " fill="#000000" transform="translate(317,339)"/>
</svg>
