<?xml version="1.0" encoding="UTF-8"?>
<svg version="1.1" xmlns="http://www.w3.org/2000/svg" width="512" height="512">
<path d="M0 0 C0.79212891 0.16628906 1.58425781 0.33257813 2.40039062 0.50390625 C27.3579877 5.78904445 52.3854827 15.80580333 73 31 C73.78963135 31.57983643 73.78963135 31.57983643 74.59521484 32.17138672 C81.2980971 37.12244625 87.6681922 42.31876741 93.78125 47.9921875 C95.32978959 49.39350678 96.93349309 50.73517893 98.57421875 52.02734375 C100.75689704 53.80230757 102.50308247 55.54583211 104.3125 57.6875 C106.11094491 59.80240946 107.90410786 61.8978811 109.8046875 63.921875 C143.7347714 100.24536731 159.32187354 151.6203449 158.08886719 200.6171875 C156.88287868 232.95358275 147.46792363 262.31203085 133 291 C132.33293588 292.33313453 131.66613264 293.66639979 131 295 C132.59134766 295.91652344 132.59134766 295.91652344 134.21484375 296.8515625 C232.69609963 354.39105095 232.69609963 354.39105095 244.5 391.9375 C249.10339059 411.62521512 246.53630981 431.69034816 236 449 C225.56830062 463.99556786 210.3642343 475.14839461 192.21728516 478.69091797 C172.78772484 481.39933279 153.41145405 478.40457 137.31054688 466.78027344 C133.57667953 463.80289594 130.24934079 460.48509036 127 457 C126.52143555 456.48727539 126.04287109 455.97455078 125.54980469 455.44628906 C116.53482483 445.62543376 108.74210743 434.83094931 101 424 C100.40364746 423.16597656 99.80729492 422.33195312 99.19287109 421.47265625 C85.91299557 402.83272283 73.81687804 383.59435283 62 364 C61.06542969 364.4846875 60.13085938 364.969375 59.16796875 365.46875 C34.99227103 377.87383652 10.14279003 386.88981956 -17 390 C-18.69576172 390.19529297 -18.69576172 390.19529297 -20.42578125 390.39453125 C-70.50585506 395.07199767 -122.87698447 380.67275719 -161.90625 348.60546875 C-166.38603208 344.85269287 -170.76388392 341.0277825 -175 337 C-175.53093262 336.49629883 -176.06186523 335.99259766 -176.60888672 335.47363281 C-211.45906934 302.18654724 -234.83125995 254.8533087 -236.28837585 206.24197388 C-236.36981048 202.20263889 -236.38474883 198.16505251 -236.375 194.125 C-236.37445618 193.27238586 -236.37391235 192.41977173 -236.37335205 191.5413208 C-236.33108104 177.06333211 -235.30379791 163.14177405 -232 149 C-231.79101074 148.09733398 -231.58202148 147.19466797 -231.36669922 146.26464844 C-224.27410651 116.77858888 -209.8650373 88.88874209 -190 66 C-189.28199219 65.17113281 -188.56398437 64.34226562 -187.82421875 63.48828125 C-159.78146823 31.75962746 -124.21326881 10.74487182 -83 1 C-81.66195312 0.67805664 -81.66195312 0.67805664 -80.296875 0.34960938 C-55.03992475 -5.46613575 -25.32439821 -5.73808844 0 0 Z M-119 100 C-119.81726563 100.66644531 -120.63453125 101.33289063 -121.4765625 102.01953125 C-127.44311881 107.0531724 -132.26424773 112.81381437 -137 119 C-137.59554687 119.76828125 -138.19109375 120.5365625 -138.8046875 121.328125 C-157.99696384 147.33056392 -165.70873986 179.68929772 -161.30859375 211.63671875 C-159.5310212 222.5800229 -156.48526364 232.87242034 -152 243 C-151.47535156 244.18980469 -150.95070313 245.37960937 -150.41015625 246.60546875 C-137.07858181 274.86840655 -112.60417932 297.7240833 -83.29394531 308.67163086 C-50.57487885 320.22495273 -16.08248749 318.88407059 15.27734375 304 C43.58033884 290.03761286 66.58017242 264.75221987 76.890625 234.76171875 C87.63666624 201.01614688 85.14678829 166.45521888 68.984375 134.984375 C65.07421879 127.71015767 60.41792066 121.2182953 55 115 C54.278125 114.15695313 53.55625 113.31390625 52.8125 112.4453125 C33.81195066 90.73982384 8.44396843 76.69253286 -20 72 C-21.05058594 71.81695312 -22.10117188 71.63390625 -23.18359375 71.4453125 C-58.14204908 67.36622969 -92.14741115 77.24675595 -119 100 Z " fill="#000000" transform="translate(251,18)"/>
</svg>
