<?xml version="1.0" encoding="UTF-8"?>
<svg version="1.1" xmlns="http://www.w3.org/2000/svg" width="512" height="512">
<path d="M0 0 C1.08027969 -0.00671722 2.16055939 -0.01343445 3.27357483 -0.02035522 C6.84413251 -0.03934991 10.41450236 -0.04326026 13.98510742 -0.04541016 C16.46986468 -0.05183727 18.95462117 -0.05856556 21.43937683 -0.06558228 C26.64873 -0.07755889 31.85801684 -0.08126272 37.06738281 -0.08007812 C43.73548726 -0.07874555 50.40310191 -0.10717243 57.07112598 -0.14162254 C62.20389247 -0.16388433 67.33655626 -0.16791587 72.46936607 -0.16685867 C74.92729855 -0.16921588 77.3852338 -0.17804608 79.84311867 -0.19352341 C83.28503705 -0.2131669 86.72603485 -0.20735075 90.16796875 -0.1953125 C91.17863403 -0.20655151 92.18929932 -0.21779053 93.23059082 -0.22937012 C100.41472612 -0.16567291 105.79881808 1.28815598 111.30151367 6.03662109 C111.7475293 6.59478516 112.19354492 7.15294922 112.65307617 7.72802734 C113.34530273 8.56140625 113.34530273 8.56140625 114.05151367 9.41162109 C116.71246415 13.48779046 117.63629158 17.65744713 118.33129883 22.42602539 C118.51133453 23.64045822 118.69137024 24.85489105 118.87686157 26.10612488 C119.15667374 28.05945488 119.15667374 28.05945488 119.44213867 30.05224609 C119.6405634 31.40801685 119.83949485 32.76371354 120.03890991 34.11933899 C120.45439377 36.95232175 120.86590009 39.78584178 121.27416992 42.61987305 C121.79796525 46.25572492 122.32838076 49.89056918 122.86133766 53.52508831 C123.36954064 56.99216823 123.87483437 60.45966993 124.37963867 63.92724609 C124.52457701 64.92105569 124.52457701 64.92105569 124.67244339 65.93494225 C124.94443208 67.80413527 125.21409462 69.67366634 125.48364258 71.54321289 C125.71442001 73.13941719 125.71442001 73.13941719 125.94985962 74.76786804 C126.27807617 77.29052734 126.27807617 77.29052734 126.27807617 79.29052734 C127.11983398 79.54447266 127.9615918 79.79841797 128.82885742 80.06005859 C132.56678902 81.3935223 135.98604072 83.09431146 139.46557617 84.97802734 C140.12195068 85.32454346 140.7783252 85.67105957 141.45458984 86.02807617 C146.44827459 88.7078073 150.98172946 91.80013423 155.42260742 95.33349609 C162.49679736 97.70446263 172.36256673 91.78892578 178.99291992 89.09521484 C179.97047745 88.70230255 180.94803497 88.30939026 181.95521545 87.90457153 C185.04367562 86.66233023 188.1296974 85.41416555 191.21557617 84.16552734 C194.32693317 82.91098281 197.43878018 81.65766459 200.55091858 80.40505981 C202.47908335 79.62852165 204.40670624 78.85063632 206.33372498 78.07125854 C207.2021553 77.72064362 208.07058563 77.37002869 208.96533203 77.00878906 C209.72792831 76.70029022 210.4905246 76.39179138 211.27622986 76.07394409 C217.72161484 73.55156137 224.96601189 73.13600691 231.69995117 74.93896484 C241.00574904 79.15903597 245.51350522 88.73925062 250.27807617 97.22802734 C251.27271744 98.97651234 252.2673738 100.72498909 253.26318359 102.47280884 C253.94137286 103.66398377 254.61861495 104.85569845 255.29492188 106.04794312 C258.57243712 111.82506854 261.92066659 117.55960307 265.27807617 123.29052734 C270.27425243 131.84319503 275.2551285 140.40459689 280.21557617 148.97802734 C280.81821289 150.01636719 281.42084961 151.05470703 282.04174805 152.12451172 C283.80217156 155.17162351 285.54564236 158.22741845 287.27807617 161.29052734 C287.92389648 162.43118652 288.5697168 163.5718457 289.23510742 164.74707031 C289.86674805 165.8867627 290.49838867 167.02645508 291.14916992 168.20068359 C291.72207764 169.22943604 292.29498535 170.25818848 292.88525391 171.31811523 C295.75727601 177.44727722 296.03248504 183.48227301 294.27807617 189.97802734 C290.48856686 199.43503288 282.13458444 204.94585348 274.23217773 210.82324219 C270.56476923 213.57700595 266.9567722 216.40757222 263.34057617 219.22802734 C262.6505249 219.76443848 261.96047363 220.30084961 261.24951172 220.85351562 C259.78936055 221.98920741 258.34150874 223.14083446 256.90429688 224.30541992 C254.84950535 225.85859552 252.84912925 227.18297477 250.65771484 228.51586914 C245.30657353 231.94121314 240.47213861 235.07426357 238.91650391 241.53979492 C238.18556821 246.44505062 238.26164581 251.28550986 238.46557617 256.22802734 C238.48202179 257.08524384 238.49846741 257.94246033 238.51541138 258.82565308 C238.57537918 270.04513048 238.57537918 270.04513048 243.07495117 279.98583984 C246.0551131 282.70605517 249.43091459 284.47090146 253.07104492 286.16650391 C256.99400522 288.16443634 260.28761946 290.99160641 263.71557617 293.72802734 C265.13281982 294.81271244 266.55210005 295.89474165 267.97338867 296.97412109 C272.38778336 300.36104474 276.75438629 303.80412096 281.09057617 307.29052734 C282.0862561 308.08221313 282.0862561 308.08221313 283.10205078 308.88989258 C290.67298912 315.02379555 294.47684457 320.99513619 295.71557617 330.72802734 C294.52162381 340.45021084 288.81397034 348.98231427 283.96557617 357.29052734 C283.25215188 358.52438416 282.53935453 359.75860367 281.82714844 360.99316406 C280.36444973 363.52631433 278.89810532 366.05729557 277.4284668 368.58642578 C274.79227025 373.1240492 272.17479843 377.67240959 269.55664062 382.22045898 C267.71641504 385.41407154 265.87051719 388.60435717 264.02416992 391.79443359 C261.75579043 395.71819786 259.5015096 399.64933966 257.26564026 403.5916748 C256.25773172 405.36803537 255.24696264 407.14273797 254.23535156 408.91699219 C252.97238044 411.13416265 251.71465993 413.35433618 250.46337891 415.578125 C239.55422487 434.67790663 239.55422487 434.67790663 230.10229492 438.07177734 C219.09433702 441.02127803 208.3721746 435.78479655 198.30932617 431.58740234 C196.08802726 430.68101691 193.86667148 429.77477084 191.64526367 428.86865234 C188.18969701 427.44769013 184.73570899 426.02300753 181.28295898 424.59521484 C177.92052695 423.2081761 174.55280297 421.83468167 171.18432617 420.46240234 C170.148927 420.02917664 169.11352783 419.59595093 168.04675293 419.14959717 C166.60374817 418.56338593 166.60374817 418.56338593 165.1315918 417.96533203 C163.86684021 417.44262726 163.86684021 417.44262726 162.57653809 416.90936279 C159.36289021 416.04412365 157.41278595 416.67727875 154.5456543 418.22680664 C153.97266602 418.60232666 153.39967773 418.97784668 152.80932617 419.36474609 C152.16108887 419.78256348 151.51285156 420.20038086 150.8449707 420.63085938 C149.82185791 421.29770752 149.82185791 421.29770752 148.77807617 421.97802734 C131.06961594 433.29052734 131.06961594 433.29052734 126.27807617 433.29052734 C126.19704147 433.89615005 126.11600677 434.50177277 126.03251648 435.12574768 C125.17819591 441.50332404 124.3170439 447.87995287 123.45214844 454.25610352 C123.13143094 456.62696697 122.8123809 458.99805667 122.49511719 461.36938477 C117.09685706 501.69056236 117.09685706 501.69056236 108.66088867 508.61865234 C104.74790133 511.38305136 101.43967128 512.41287847 96.7191925 512.43769836 C95.31677055 512.44843132 95.31677055 512.44843132 93.88601685 512.4593811 C92.35012405 512.46341446 92.35012405 512.46341446 90.78320312 512.4675293 C89.70321548 512.47410049 88.62322784 512.48067169 87.51051331 512.48744202 C83.92912733 512.50718519 80.34778332 512.51884042 76.76635742 512.52880859 C75.54344687 512.53288412 74.32053631 512.53695965 73.06056786 512.54115868 C66.58692976 512.56202453 60.1133129 512.57632361 53.63964844 512.58569336 C48.28244634 512.59375117 42.92546861 512.61486816 37.56835938 512.6472168 C31.10042155 512.68565064 24.63271122 512.70445809 18.16466331 512.70897484 C15.70114074 512.71384356 13.23762177 512.72546558 10.7741642 512.74401283 C7.32248237 512.76838332 3.87166357 512.76744243 0.41992188 512.76049805 C-0.5938855 512.77330811 -1.60769287 512.78611816 -2.65222168 512.79931641 C-9.85034293 512.74665049 -15.23203774 511.30206998 -20.74536133 506.54443359 C-21.19137695 505.98626953 -21.63739258 505.42810547 -22.09692383 504.85302734 C-22.5584082 504.29744141 -23.01989258 503.74185547 -23.49536133 503.16943359 C-26.19237232 499.03802503 -27.01788251 495.072816 -27.44189453 490.20605469 C-27.55414871 489.00065033 -27.66640289 487.79524597 -27.78205872 486.55331421 C-27.90272202 485.25745392 -28.02338531 483.96159363 -28.14770508 482.62646484 C-28.51994667 479.14842385 -28.91946109 475.673471 -29.31849384 472.19841576 C-29.72861266 468.57994298 -30.10352697 464.96444653 -30.40234375 461.33496094 C-31.17489585 445.48950296 -31.17489585 445.48950296 -37.94210815 431.92797852 C-43.00670741 428.2411903 -48.43873399 426.08287932 -54.36277771 424.16027832 C-58.44853001 422.65397609 -61.37488636 420.11963782 -64.68676758 417.33740234 C-67.63116473 415.82281801 -69.52716985 416.60521561 -72.72192383 417.29052734 C-74.48196432 417.88146737 -76.22406169 418.52824156 -77.9453125 419.22412109 C-78.93621384 419.62123291 -79.92711517 420.01834473 -80.94804382 420.42749023 C-82.00135391 420.85666748 -83.054664 421.28584473 -84.13989258 421.72802734 C-85.23409012 422.16816162 -86.32828766 422.6082959 -87.4556427 423.06176758 C-90.94255882 424.46567398 -94.4260532 425.87784974 -97.90942383 427.29052734 C-101.40420916 428.70140736 -104.89966601 430.1106104 -108.39533997 431.51928711 C-110.56845004 432.39570629 -112.7409058 433.27374991 -114.91264343 434.15356445 C-115.89408829 434.55067627 -116.87553314 434.94778809 -117.88671875 435.35693359 C-118.75020432 435.70699463 -119.61368988 436.05705566 -120.50334167 436.41772461 C-127.03942564 438.98905691 -134.29894729 439.47474364 -141.14379883 437.64208984 C-150.4052267 433.44213999 -154.91300612 423.92786015 -159.65942383 415.47802734 C-160.65170077 413.73465189 -161.64398934 411.99128293 -162.63699341 410.24832153 C-163.66089353 408.44904908 -164.68161184 406.64799989 -165.7019043 404.84667969 C-168.84240073 399.30906753 -172.03518709 393.80160856 -175.22192383 388.29052734 C-176.460402 386.14350551 -177.69868227 383.9963695 -178.93676758 381.84912109 C-181.21001776 377.90846475 -183.48567895 373.96922329 -185.76467896 370.03189087 C-186.78210088 368.27394666 -187.79896844 366.51568292 -188.81567383 364.75732422 C-190.08411193 362.56398334 -191.35356485 360.37122887 -192.62426758 358.17919922 C-194.33364158 355.22198219 -196.0309647 352.25830772 -197.72192383 349.29052734 C-198.29281738 348.29609619 -198.86371094 347.30166504 -199.4519043 346.27709961 C-199.99347168 345.31473389 -200.53503906 344.35236816 -201.09301758 343.36083984 C-201.57569092 342.50893066 -202.05836426 341.65702148 -202.55566406 340.77929688 C-205.74009124 333.98380793 -205.13915079 327.1968901 -202.72192383 320.29052734 C-198.03717738 311.46158212 -188.9955345 305.88969954 -181.21020508 299.95849609 C-176.07860842 296.04534759 -170.9446198 292.10905807 -165.97290039 287.99462891 C-164.09367662 286.57196276 -162.23872041 285.3753193 -160.22875977 284.15673828 C-154.86389711 280.72164584 -149.92489496 277.52702708 -148.33642578 271.05151367 C-147.59153331 266.16579933 -147.65416272 261.34121151 -147.84692383 256.41552734 C-147.86867676 255.1326181 -147.86867676 255.1326181 -147.89086914 253.8237915 C-148.00139534 242.39215687 -148.00139534 242.39215687 -152.77661133 232.33740234 C-155.97807016 229.39285582 -159.57351323 227.37271424 -163.46411133 225.46533203 C-167.21166987 223.51536969 -170.40567786 220.88665768 -173.72192383 218.29052734 C-175.03776813 217.30755838 -176.35548881 216.32709634 -177.67504883 215.34912109 C-182.00646678 212.09843646 -186.25346388 208.74865582 -190.47192383 205.35302734 C-191.1396582 204.82128906 -191.80739258 204.28955078 -192.49536133 203.74169922 C-200.08343962 197.5822406 -203.91642102 191.61947798 -205.15942383 181.85302734 C-203.96032302 172.08892074 -198.21285 163.51100249 -193.34692383 155.16552734 C-192.63097502 153.92641596 -191.91557087 152.68698974 -191.20068359 151.44726562 C-189.0501574 147.72305814 -186.88707695 144.00624419 -184.72192383 140.29052734 C-184.10397949 139.22833984 -183.48603516 138.16615234 -182.84936523 137.07177734 C-180.55733632 133.1335223 -178.26314632 129.19657569 -175.96069336 125.2644043 C-172.85927188 119.96721181 -169.77838451 114.65899754 -166.72583008 109.33349609 C-166.39066879 108.74949036 -166.05550751 108.16548462 -165.71018982 107.56378174 C-164.09317388 104.74608399 -162.47898541 101.92685218 -160.87011719 99.10449219 C-150.66498657 81.31330895 -150.66498657 81.31330895 -145.53442383 77.79052734 C-144.5540918 77.09443359 -144.5540918 77.09443359 -143.55395508 76.38427734 C-138.13036443 73.14631278 -131.79886411 73.6898809 -125.72192383 74.29052734 C-120.62599844 75.67410599 -115.82998329 77.62846343 -110.97192383 79.66552734 C-109.62345516 80.21031369 -108.27407315 80.75284426 -106.92382812 81.29321289 C-102.8453481 82.93226052 -98.78303905 84.60901775 -94.72192383 86.29052734 C-91.09237865 87.78752609 -87.46064656 89.27894597 -83.82446289 90.75976562 C-81.67418412 91.63768443 -79.52871791 92.52750955 -77.38891602 93.43066406 C-76.43275391 93.82398926 -75.4765918 94.21731445 -74.49145508 94.62255859 C-73.66234619 94.97036377 -72.8332373 95.31816895 -71.97900391 95.67651367 C-68.65129735 96.58177944 -66.78205667 95.85936264 -63.8059082 94.26245117 C-63.14913086 93.84503662 -62.49235352 93.42762207 -61.81567383 92.99755859 C-60.69805664 92.29856445 -60.69805664 92.29856445 -59.55786133 91.58544922 C-58.03168371 90.61691342 -56.50563635 89.64817231 -54.97973633 88.67919922 C-54.2243457 88.20675781 -53.46895508 87.73431641 -52.69067383 87.24755859 C-51.94990601 86.77793198 -51.20913818 86.30830536 -50.44592285 85.82444763 C-47.72192383 84.29052734 -47.72192383 84.29052734 -44.71716309 83.17677307 C-38.31825777 80.71741056 -38.31825777 80.71741056 -34.34680176 75.41395569 C-33.52963644 71.74261469 -33.07441577 68.16804461 -32.72192383 64.42333984 C-32.55210388 63.0603633 -32.37695812 61.69804087 -32.19677734 60.33639526 C-31.73641823 56.7633737 -31.33975736 53.18628013 -30.95904541 49.60400391 C-30.3387234 43.87883888 -29.61658757 38.16543319 -28.90380859 32.45119858 C-28.66482152 30.46812891 -28.45185451 28.48197844 -28.23950195 26.49588013 C-27.29176493 18.29561533 -26.13979961 10.39349506 -19.28442383 4.91552734 C-18.72883789 4.45404297 -18.17325195 3.99255859 -17.60083008 3.51708984 C-11.91611669 -0.19392887 -6.58987162 -0.00587455 0 0 Z M-11.72192383 193.29052734 C-12.48375977 193.95697266 -13.2455957 194.62341797 -14.03051758 195.31005859 C-29.78799886 210.02978548 -38.57122072 231.53406665 -39.87817383 252.83740234 C-40.60493363 275.24582958 -32.47018013 296.52494947 -17.72192383 313.29052734 C-16.72225586 314.43328125 -16.72225586 314.43328125 -15.70239258 315.59912109 C-1.1336213 331.19500426 20.34020909 340.14602539 41.46166992 341.49365234 C64.19232973 341.82110483 85.1265086 334.37832907 102.27807617 319.29052734 C103.03991211 318.62408203 103.80174805 317.95763672 104.58666992 317.27099609 C120.18255309 302.70222482 129.13357422 281.22839443 130.48120117 260.10693359 C130.80865365 237.37627379 123.36587789 216.44209492 108.27807617 199.29052734 C107.61163086 198.52869141 106.94518555 197.76685547 106.25854492 196.98193359 C91.68977365 181.38605043 70.21594326 172.43502929 49.09448242 171.08740234 C26.36382261 170.75994986 5.42964375 178.20272562 -11.72192383 193.29052734 Z " fill="#000000" transform="translate(210.721923828125,-0.29052734375)"/>
</svg>
