<?xml version="1.0" encoding="UTF-8"?>
<svg version="1.1" xmlns="http://www.w3.org/2000/svg" width="512" height="512">
<path d="M0 0 C3.36194339 0.67509384 4.55751109 1.63664106 7.0324707 3.98269653 C7.90331299 4.80505798 8.77415527 5.62741943 9.67138672 6.47470093 C10.72613757 7.50370323 11.77858381 8.53507047 12.8293457 9.56814575 C13.45082489 10.17654045 14.07230408 10.78493515 14.71261597 11.41176605 C20.1828137 16.78005304 25.60109564 22.19971764 31.0168457 27.62283325 C32.7688157 29.37412871 34.52093404 31.12527577 36.27319336 32.87628174 C39.92586101 36.5274822 43.57673141 40.1804676 47.22631836 43.83474731 C51.90817248 48.52232784 56.59454189 53.20536462 61.28224182 57.88709831 C64.89218634 61.49343598 68.49975409 65.10214361 72.1065979 68.71158218 C73.83467176 70.44032344 75.56348963 72.1683213 77.2930603 73.89556503 C79.70080899 76.300782 82.10534244 78.70916734 84.5090332 81.11843872 C85.22484055 81.83222183 85.94064789 82.54600494 86.67814636 83.28141785 C87.33116226 83.93725357 87.98417816 84.59308929 88.65698242 85.26879883 C89.50859451 86.12097646 89.50859451 86.12097646 90.37741089 86.9903698 C94.07223619 91.00543057 94.30786593 93.88870437 94.22387695 99.118927 C93.62640282 102.82799912 91.77405866 104.39466714 88.8293457 106.56814575 C85.71981191 108.12291265 83.2666781 107.85459012 79.8293457 107.56814575 C75.2082195 104.89242554 71.62846339 101.62205564 67.9543457 97.81814575 C67.45676758 97.31154419 66.95918945 96.80494263 66.4465332 96.2829895 C65.23611368 95.04929268 64.03204717 93.80936791 62.8293457 92.56814575 C59.04633344 94.13758259 56.65678023 96.49915853 53.78540039 99.38504028 C53.29713776 99.87301086 52.80887512 100.36098145 52.30581665 100.86373901 C50.69949609 102.4714485 49.10036857 104.08611676 47.5012207 105.70095825 C46.38636254 106.8195481 45.27106083 107.93769604 44.15533447 109.05541992 C41.22463962 111.993739 38.30000149 114.9380153 35.37658691 117.88357544 C32.39051845 120.89012838 29.39875711 123.89100457 26.4074707 126.8923645 C20.54251114 132.77875261 14.68393838 138.67144675 8.8293457 144.56814575 C10.20722077 147.67285489 11.78273762 149.75498522 14.20581055 152.12405396 C14.89347504 152.80188431 15.58113953 153.47971466 16.28964233 154.17808533 C17.40370956 155.26255196 17.40370956 155.26255196 18.5402832 156.368927 C20.11071757 157.91893375 21.68102613 159.46906797 23.2512207 161.01931763 C25.72621645 163.45088809 28.20362164 165.87993745 30.68383789 168.30618286 C33.08001822 170.65389521 35.46676719 173.01089159 37.8527832 175.368927 C38.96077774 176.44428459 38.96077774 176.44428459 40.09115601 177.54136658 C47.52613401 184.90475585 51.65976545 192.05950912 51.8996582 202.681427 C51.53840702 211.72333155 49.29570257 218.58183535 43.3293457 225.44314575 C42.5043457 226.14439575 41.6793457 226.84564575 40.8293457 227.56814575 C40.1074707 228.24877075 39.3855957 228.92939575 38.6418457 229.63064575 C30.24432284 235.41560595 21.92257242 236.72774273 11.8293457 235.56814575 C0.20929553 232.47641342 -8.10006211 222.90577959 -16.1706543 214.56814575 C-19.34155212 215.97044257 -21.47354475 217.62339427 -23.91570282 220.07268524 C-25.01599343 221.1688528 -25.01599343 221.1688528 -26.13851213 222.28716516 C-26.93734048 223.09318344 -27.73616883 223.89920171 -28.5592041 224.72964478 C-29.41326198 225.58340494 -30.26731986 226.4371651 -31.14725828 227.31679678 C-33.51707599 229.68776428 -35.88231652 232.06313764 -38.24576545 234.44044375 C-40.79565756 237.00307742 -43.35135021 239.55991428 -45.90638733 242.11741638 C-50.33315465 246.54995901 -54.7563521 250.98603822 -59.17726135 255.42442322 C-65.57251923 261.84477545 -71.97423614 268.2586563 -78.37774724 274.67077583 C-88.77104852 285.07821468 -99.16060746 295.48938034 -109.54711914 305.90359497 C-110.16884638 306.52697783 -110.79057362 307.1503607 -111.43114108 307.79263395 C-115.84441147 312.2177055 -120.2575484 316.64291015 -124.6706543 321.06814575 C-129.71174063 326.12308782 -134.75288731 331.17796969 -139.79418945 336.23269653 C-140.72564381 337.16663527 -140.72564381 337.16663527 -141.67591542 338.11944145 C-152.0234287 348.49430998 -162.37485624 358.86526451 -172.72909403 369.2334218 C-179.11775346 375.63105181 -185.50282661 382.03222196 -191.88334954 388.43796694 C-196.25368831 392.82513576 -200.6275378 397.20878322 -205.00418794 401.58965576 C-207.53077907 404.11894134 -210.05566489 406.64987256 -212.5762043 409.1851902 C-215.30613035 411.93106178 -218.0437161 414.66921292 -220.78210449 417.40664673 C-221.58093284 418.212665 -222.37976119 419.01868327 -223.20279646 419.84912634 C-223.93632353 420.57990471 -224.66985061 421.31068309 -225.42560577 422.06360626 C-226.05681099 422.69665507 -226.68801621 423.32970387 -227.33834887 423.98193598 C-233.11789843 428.98523829 -239.93296961 428.08465024 -247.1706543 427.56814575 C-263.84258083 425.90823342 -279.60169434 422.0134473 -294.31518555 413.9236145 C-297.24610214 412.28225913 -297.24610214 412.28225913 -301.1706543 412.56814575 C-303.27420615 414.0839505 -303.27420615 414.0839505 -305.30052185 416.23045349 C-306.11496765 417.04229095 -306.92941345 417.85412842 -307.76853943 418.69056702 C-308.65332474 419.59287552 -309.53811005 420.49518402 -310.44970703 421.42483521 C-311.39696217 422.37649242 -312.34511517 423.32725667 -313.2940979 424.27719116 C-315.33688438 426.32584833 -317.3731927 428.38066456 -319.40475273 430.44045448 C-322.61823083 433.69844126 -325.84580369 436.94221453 -329.07545471 440.18415833 C-334.18397108 445.31545022 -339.28305947 450.45599475 -344.37813288 455.60063189 C-353.49675169 464.80781256 -362.62642464 474.00399872 -371.76669651 483.18968362 C-374.97359737 486.41338215 -378.1747922 489.6426114 -381.37149227 492.87642443 C-383.36370761 494.88996807 -385.36001595 496.89941712 -387.3573494 498.90788269 C-388.72078028 500.28153537 -390.07909411 501.66026114 -391.4372406 503.03913879 C-392.66313904 504.2695842 -392.66313904 504.2695842 -393.9138031 505.52488708 C-394.61931022 506.23743306 -395.32481733 506.94997904 -396.05170345 507.68411732 C-400.59341731 511.72230352 -404.03567566 513.12075341 -410.0144043 512.931427 C-413.2346861 512.38887952 -414.97015801 510.90617306 -417.1706543 508.56814575 C-418.94502906 505.01939622 -418.78388585 501.43525902 -418.1706543 497.56814575 C-413.89830543 488.30508848 -403.08616908 479.90593907 -395.43959045 473.33552551 C-391.29169739 469.71754399 -387.35709179 465.92244 -383.45361328 462.04397583 C-382.36680519 460.96943398 -382.36680519 460.96943398 -381.25804138 459.8731842 C-378.89129232 457.53100379 -376.52848586 455.18490994 -374.16674805 452.837677 C-373.35642687 452.0326795 -372.54610569 451.227682 -371.71122932 450.39829063 C-367.43628229 446.14992963 -363.16491783 441.89800009 -358.89599609 437.64358521 C-355.36155269 434.12256053 -351.81995118 430.60897775 -348.27197266 427.10159302 C-343.97885522 422.85757725 -339.69794003 418.60161931 -335.42573738 414.33655357 C-333.79639152 412.71394274 -332.16277645 411.09560745 -330.52490044 409.48160744 C-328.24584486 407.23393729 -325.98282232 404.97125881 -323.72314453 402.70413208 C-323.04016296 402.03755585 -322.3571814 401.37097961 -321.65350342 400.6842041 C-321.04379196 400.06617416 -320.43408051 399.44814423 -319.80589294 398.81138611 C-319.26966025 398.27846356 -318.73342756 397.74554102 -318.1809454 397.19646931 C-316.95319899 395.59646191 -316.95319899 395.59646191 -317.41513157 393.54391003 C-318.50796963 390.68603386 -319.96876346 388.07295637 -321.4206543 385.38064575 C-329.75051903 369.18963169 -336.20980257 345.82696571 -333.1706543 327.56814575 C-329.91875312 321.85255258 -325.39649409 317.51974368 -320.75518799 312.91217041 C-319.89830785 312.05358142 -319.0414277 311.19499243 -318.1585815 310.31038558 C-315.7882776 307.93736309 -313.41358371 305.56889667 -311.03690696 303.20226717 C-308.47163487 300.64564954 -305.91216324 298.08323638 -303.35197449 295.52153015 C-298.91850865 291.08701672 -294.48140204 286.65617354 -290.04178619 282.22781754 C-283.622891 275.82519147 -277.20953982 269.41703561 -270.79751882 263.00752614 C-260.3937429 252.60812511 -249.98551052 242.21319624 -239.57446289 231.82107544 C-229.46241664 221.72739333 -219.35247764 211.63160822 -209.24536133 201.5329895 C-208.62213015 200.91028377 -207.99889896 200.28757803 -207.35678199 199.64600243 C-204.23015922 196.52198978 -201.1035778 193.39793576 -197.97701693 190.27386117 C-172.04796868 164.36553898 -146.11168243 138.46447265 -120.1706543 112.56814575 C-122.02831726 108.49747862 -124.77543425 105.85838478 -127.9831543 102.81814575 C-136.38298326 94.62139779 -141.06093801 87.47700582 -141.6081543 75.38064575 C-141.47148216 66.26566568 -138.24054167 58.35876187 -132.1706543 51.56814575 C-129.98706055 49.837677 -129.98706055 49.837677 -127.7331543 48.38064575 C-126.62133789 47.64781372 -126.62133789 47.64781372 -125.48706055 46.900177 C-116.58185224 41.77930679 -106.6580799 41.66929849 -96.90112305 44.290802 C-89.45135428 47.77588696 -83.65474829 53.80493162 -77.9519043 59.59158325 C-77.20855835 60.33775909 -76.4652124 61.08393494 -75.69934082 61.85272217 C-73.35166168 64.2114986 -71.01107546 66.57716993 -68.6706543 68.94314575 C-67.06955754 70.55428581 -65.46799936 72.16496746 -63.8659668 73.775177 C-59.96218086 77.70088447 -56.064177 81.63226038 -52.1706543 85.56814575 C-48.38764203 83.99870892 -45.99808882 81.63713298 -43.12670898 78.75125122 C-42.63844635 78.26328064 -42.15018372 77.77531006 -41.64712524 77.27255249 C-40.04080468 75.664843 -38.44167717 74.05017474 -36.8425293 72.43533325 C-35.72767113 71.31674341 -34.61236943 70.19859546 -33.49664307 69.08087158 C-30.56594821 66.14255251 -27.64131008 63.1982762 -24.71789551 60.25271606 C-21.73182704 57.24616313 -18.74006571 54.24528694 -15.7487793 51.243927 C-9.88381974 45.35753889 -4.02524698 39.46484475 1.8293457 33.56814575 C0.02083036 29.62801603 -2.55871835 27.01925814 -5.6706543 24.06814575 C-12.93312216 17.18099922 -12.93312216 17.18099922 -13.4831543 11.13064575 C-13.14966538 7.32887213 -12.47914091 5.56062839 -10.1706543 2.56814575 C-6.52534817 0.13794166 -4.31890835 -0.1976417 0 0 Z M-107.3565979 131.62966919 C-107.95144989 132.22811646 -108.54630188 132.82656372 -109.15917969 133.44314575 C-109.78355423 134.06737427 -110.40792877 134.69160278 -111.05122375 135.33474731 C-113.1259634 137.41018675 -115.1971331 139.48915191 -117.26831055 141.56814575 C-118.70155966 143.00325881 -120.1350289 144.43815207 -121.56871033 145.87283325 C-125.35044433 149.65839428 -129.1291664 153.44694821 -132.9072876 157.2361145 C-136.75955222 161.09858929 -140.61463214 164.95825183 -144.46948242 168.81814575 C-152.03931164 176.39871555 -159.60596475 183.98244728 -167.1706543 191.56814575 C-164.36410321 193.02526083 -162.1523386 193.86974082 -159.0065918 194.2517395 C-143.21448395 196.42194328 -128.08665619 200.29149169 -112.73657227 204.50735474 C-97.16488896 208.75526102 -81.35758461 212.48943733 -65.2331543 213.81814575 C-64.42426758 213.8954895 -63.61538086 213.97283325 -62.78198242 214.05252075 C-60.57685006 214.25446255 -58.38169018 214.4465326 -56.1706543 214.56814575 C-55.18234619 214.65096802 -54.19403809 214.73379028 -53.17578125 214.81912231 C-49.42400516 214.50578851 -48.4355847 213.53761141 -45.8659668 210.84939575 C-45.11831055 210.08240356 -44.3706543 209.31541138 -43.6003418 208.525177 C-42.45952148 207.30894653 -42.45952148 207.30894653 -41.2956543 206.06814575 C-40.5119043 205.25732544 -39.7281543 204.44650513 -38.9206543 203.6111145 C-36.98979427 201.60961326 -35.07430217 199.59548951 -33.1706543 197.56814575 C-37.12733007 192.83091426 -41.24785866 188.34591221 -45.61914062 183.99026489 C-46.23288544 183.37476776 -46.84663025 182.75927063 -47.47897339 182.12512207 C-49.48438956 180.11534599 -51.49339142 178.10920048 -53.50268555 176.103302 C-54.9043362 174.70097715 -56.30583843 173.29850392 -57.7071991 171.89588928 C-60.63146564 168.97015418 -63.55751928 166.04622152 -66.48486328 163.12356567 C-70.24565999 159.36849752 -74.00190707 155.60891522 -77.75685596 151.84800053 C-80.64339729 148.95785783 -83.53230096 146.07008599 -86.42194176 143.18304253 C-87.80903308 141.79662001 -89.1953772 140.40944953 -90.58097267 139.02153206 C-92.50796094 137.09202082 -94.43809647 135.16571582 -96.36914062 133.24026489 C-96.94521561 132.66216568 -97.52129059 132.08406647 -98.11482239 131.4884491 C-102.80909106 126.8195001 -102.67663433 126.96162192 -107.3565979 131.62966919 Z M-137.1706543 238.56814575 C-139.56812974 240.88570535 -140.10467296 242.13455409 -140.6081543 245.44314575 C-139.74586612 251.60234702 -135.24624974 255.73761537 -130.9675293 259.96658325 C-130.4848761 260.44640656 -130.0022229 260.92622986 -129.50494385 261.42059326 C-127.98152951 262.93292632 -126.45126974 264.4381049 -124.9206543 265.94314575 C-123.87852437 266.97523027 -122.83685325 268.00777829 -121.7956543 269.040802 C-119.25926451 271.55529171 -116.71669104 274.06342014 -114.1706543 276.56814575 C-110.16690999 274.73122186 -107.45107495 272.07696659 -104.4206543 268.94314575 C-103.91405273 268.42752075 -103.40745117 267.91189575 -102.88549805 267.38064575 C-101.64261528 266.11431237 -100.40600154 264.84183135 -99.1706543 263.56814575 C-104.06458325 257.70653554 -109.25578809 252.20007767 -114.6081543 246.75564575 C-115.42864258 245.89777466 -116.24913086 245.03990356 -117.09448242 244.15603638 C-123.32800952 237.83296141 -128.62010941 232.73822878 -137.1706543 238.56814575 Z M-180.1706543 302.56814575 C-182.36103484 305.74773041 -183.23056484 307.5842815 -182.99487305 311.4548645 C-182.01951478 315.13903765 -180.65115884 316.81249349 -178.0456543 319.56814575 C-177.30057617 320.37252075 -176.55549805 321.17689575 -175.7878418 322.00564575 C-172.72092597 325.00847677 -169.42953425 327.77482008 -166.1706543 330.56814575 C-161.5506543 325.94814575 -156.9306543 321.32814575 -152.1706543 316.56814575 C-160.33553557 306.37364196 -160.33553557 306.37364196 -171.1706543 299.56814575 C-175.01624389 299.56814575 -176.91599293 300.5339824 -180.1706543 302.56814575 Z M-245.1706543 346.56814575 C-246.83424511 349.89068686 -246.83424511 349.89068686 -247.1706543 353.56814575 C-245.25661708 358.44879491 -242.336541 361.80794393 -238.62768555 365.40408325 C-238.09922531 365.92829865 -237.57076508 366.45251404 -237.02629089 366.99261475 C-235.35221042 368.6500273 -233.66796171 370.29664585 -231.9831543 371.94314575 C-230.83988541 373.07135245 -229.69729998 374.20025217 -228.55541992 375.3298645 C-225.76833762 378.08403552 -222.97209227 380.82858119 -220.1706543 383.56814575 C-216.40484369 380.38783454 -212.68626441 377.2167275 -209.2331543 373.69314575 C-208.64663086 373.09759888 -208.06010742 372.502052 -207.45581055 371.88845825 C-207.03170898 371.45275513 -206.60760742 371.017052 -206.1706543 370.56814575 C-207.74728067 366.76322076 -210.14757143 364.33296469 -213.0378418 361.43533325 C-213.7518364 360.71846848 -213.7518364 360.71846848 -214.48025513 359.98712158 C-215.48478639 358.98123348 -216.49183118 357.97785 -217.5012207 356.97683716 C-219.04052874 355.44823566 -220.56888126 353.90926417 -222.09643555 352.368927 C-223.0762637 351.39042053 -224.05671211 350.41253469 -225.0378418 349.43533325 C-225.92584473 348.54958618 -226.81384766 347.66383911 -227.72875977 346.75125122 C-230.86242445 343.94968858 -232.9525407 342.72364962 -237.1081543 342.19314575 C-241.04205393 342.67484775 -242.48945861 343.66351709 -245.1706543 346.56814575 Z " fill="#000000" transform="translate(418.170654296875,-0.568145751953125)"/>
</svg>
