<?xml version="1.0" encoding="UTF-8"?>
<svg version="1.1" xmlns="http://www.w3.org/2000/svg" width="450" height="450">
<path d="M0 0 C1.52947266 0.39832031 1.52947266 0.39832031 3.08984375 0.8046875 C20.56521821 5.48599717 29.40549163 16.0643539 39.5 30.25 C40.99873405 32.32997385 42.50261006 34.40599101 44.01196289 36.47827148 C44.93335072 37.74460773 45.849582 39.0147192 46.75952148 40.28930664 C48.79459202 43.10423282 50.71530711 45.45431271 53.25390625 47.86328125 C56.92816562 51.7675812 56.63620479 56.15711635 56.81640625 61.34375 C56.85830078 62.52888184 56.90019531 63.71401367 56.94335938 64.93505859 C56.98267578 66.19398926 57.02199219 67.45291992 57.0625 68.75 C57.10568359 70.04631348 57.14886719 71.34262695 57.19335938 72.67822266 C57.43146398 80.33063996 57.54679025 87.96939558 57.5 95.625 C57.49236029 98.83337265 57.49298716 102.04162789 57.5 105.25 C57.4990332 105.93690918 57.49806641 106.62381836 57.49707031 107.33154297 C57.54368214 115.91023818 59.14046125 122.68851756 62.32421875 130.5300293 C64.53667444 136.04822621 66.12955691 141.26404907 65.5 147.25 C63.8125 150.625 63.8125 150.625 61.5 153.25 C60.943125 154.136875 60.38625 155.02375 59.8125 155.9375 C55.22492061 160.52507939 47.84420018 162.00120784 41.5 162.25 C39.0625 161 39.0625 161 37.5 159.25 C37.5 158.26 37.5 157.27 37.5 156.25 C38.49 155.59 39.48 154.93 40.5 154.25 C39.84 153.734375 39.18 153.21875 38.5 152.6875 C36.5 150.25 36.5 150.25 35.9375 146.75 C36.5 143.25 36.5 143.25 38.5625 140.75 C42.40767137 138.78650824 44.37763289 139.12571806 48.5 140.25 C50.9375 141.4375 50.9375 141.4375 52.5 143.25 C53.00476722 147.20400991 52.5880823 149.85686626 50.5 153.25 C52.66345727 150.90625462 53.46214706 149.50415543 53.9375 146.3125 C53.37499856 142.37498993 52.53727005 140.83167954 49.5 138.25 C43.20127058 137.18241874 39.93698433 138.86611016 34.62109375 142.13671875 C31.83428152 143.59941025 29.59036778 143.646201 26.5 143.25 C29.2036086 136.9023972 32.74330507 132.45766557 37.4765625 127.44921875 C40.81547048 123.87787177 40.81547048 123.87787177 41.4375 119.1875 C40.88257406 116.06010467 39.75067155 113.58535388 38.27734375 110.78125 C35.2796756 104.90465983 32.68476585 98.89035876 30.125 92.8125 C29.64385742 91.68102539 29.16271484 90.54955078 28.66699219 89.38378906 C26.46194214 84.14698007 24.3316736 78.91478326 22.4765625 73.54296875 C22.17927246 72.68437256 21.88198242 71.82577637 21.57568359 70.94116211 C21.04493611 69.37198882 20.53315762 67.79620145 20.04541016 66.21313477 C18.15295015 60.58019985 15.25658182 57.71728701 10.5 54.25 C5.26162521 50.25447336 2.26050426 47.16188321 -0.375 41 C-2.31080729 36.62657251 -2.31080729 36.62657251 -6.0234375 33.84765625 C-8.51926302 33.12894432 -10.93595718 32.64198496 -13.5 32.25 C-14.16 31.92 -14.82 31.59 -15.5 31.25 C-15.26023437 29.74179688 -15.26023437 29.74179688 -15.015625 28.203125 C-13.66201795 17.82547096 -14.03966143 8.15727887 -17.5 -1.75 C-11.32103251 -3.56983289 -6.00003335 -1.65361222 0 0 Z " fill="#F2F46B" transform="translate(273.5,51.75)"/>
<path d="M0 0 C3.72236569 1.05498825 7.41244154 2.19445458 11.09912109 3.36621094 C12.43482425 3.78033573 13.77092922 4.19316659 15.10742188 4.60473633 C17.76523311 5.4247418 20.42104531 6.25074142 23.07519531 7.08251953 C28.09373786 8.64928725 33.12572364 10.16886769 38.16162109 11.67871094 C38.93159424 11.91283691 39.70156738 12.14696289 40.49487305 12.38818359 C41.9246729 12.82010396 43.35690848 13.24406421 44.79174805 13.65893555 C46.67527573 14.20871079 48.54600712 14.80179034 50.41552734 15.39746094 C54.18541713 16.32554095 57.79065827 16.34535298 61.66552734 16.33886719 C62.9165625 16.33693359 64.16759766 16.335 65.45654297 16.33300781 C68.05585037 16.31344454 70.65509304 16.26647212 73.25341797 16.19238281 C82.55287293 16.24513887 82.55287293 16.24513887 86.17675781 19.17089844 C87.98404707 21.45654654 89.43015501 23.66601726 90.78662109 26.24121094 C91.15980469 26.93706299 91.53298828 27.63291504 91.91748047 28.34985352 C94.56846309 33.73745443 94.14499753 39.51400219 92.78662109 45.24121094 C90.97412109 47.99121094 90.97412109 47.99121094 88.78662109 49.24121094 C86.53662109 48.99121094 86.53662109 48.99121094 84.78662109 48.24121094 C85.30930575 45.47844917 85.89531696 42.91512334 86.78662109 40.24121094 C87.15932003 36.21606237 87.13784218 33.90150658 85.22412109 30.30371094 C82.87128856 27.94384578 82.87128856 27.94384578 79.34912109 27.74121094 C75.67712702 28.25657853 73.70974941 29.00587752 70.78662109 31.24121094 C69.56024539 33.69396234 69.67246795 35.29178904 69.68896484 38.03027344 C69.6921875 38.97128906 69.69541016 39.91230469 69.69873047 40.88183594 C69.70710937 41.86667969 69.71548828 42.85152344 69.72412109 43.86621094 C69.73088867 45.35507813 69.73088867 45.35507813 69.73779297 46.87402344 C69.74959965 49.32981254 69.76606709 51.78548198 69.78662109 54.24121094 C68.79662109 54.24121094 67.80662109 54.24121094 66.78662109 54.24121094 C65.59155273 52.85180664 65.59155273 52.85180664 64.44677734 50.91699219 C63.8115918 49.86801758 63.8115918 49.86801758 63.16357422 48.79785156 C62.51291992 47.68700195 62.51291992 47.68700195 61.84912109 46.55371094 C60.98886697 45.110496 60.12564032 43.66904826 59.25927734 42.22949219 C58.69092163 41.26329956 58.69092163 41.26329956 58.11108398 40.27758789 C57.67401123 39.6055835 57.23693848 38.9335791 56.78662109 38.24121094 C55.90067261 36.8774231 55.90067261 36.8774231 54.99682617 35.48608398 C52.98772621 32.97765768 52.98772621 32.97765768 50.06640625 32.91894531 C49.03821777 33.05623047 48.0100293 33.19351563 46.95068359 33.33496094 C45.22253418 33.53992188 45.22253418 33.53992188 43.45947266 33.74902344 C42.24743164 33.91144531 41.03539062 34.07386719 39.78662109 34.24121094 C37.35751985 34.48666702 34.9278151 34.72622 32.49755859 34.95996094 C30.05203064 35.21834649 27.60671742 35.47877233 25.16162109 35.74121094 C23.28410156 35.93650391 23.28410156 35.93650391 21.36865234 36.13574219 C20.17369141 36.26335937 18.97873047 36.39097656 17.74755859 36.52246094 C16.67296387 36.63654297 15.59836914 36.750625 14.49121094 36.86816406 C11.69619981 37.16933121 11.69619981 37.16933121 8.78662109 38.24121094 C5.09978335 38.23391749 1.42554748 38.1667624 -2.25830078 38.02636719 C-9.83508973 37.88734354 -15.66485774 39.76972749 -21.77587891 44.30371094 C-26.22342288 47.37752546 -30.25113878 48.95664929 -35.69384766 49.47949219 C-41.00725072 50.05554371 -41.00725072 50.05554371 -44.96337891 53.37011719 C-46.20467518 55.6234931 -47.27715612 57.8464516 -48.21337891 60.24121094 C-52.65266535 58.87527665 -56.77710106 57.12287516 -60.96728516 55.14355469 C-65.92974163 53.14994174 -70.74047204 53.11295946 -76.02587891 53.17871094 C-76.71875 53.18322266 -77.41162109 53.18773437 -78.12548828 53.19238281 C-79.82148959 53.20407937 -81.51744594 53.2220117 -83.21337891 53.24121094 C-77.25059412 35.95737854 -68.09027995 21.48409222 -51.21337891 13.24121094 C-45.55412309 11.02640817 -39.71239151 9.31740382 -33.90087891 7.55371094 C-31.59267847 6.84533468 -29.28584024 6.13311045 -26.9811554 5.41337585 C-25.55870528 4.96989977 -24.13414144 4.53312606 -22.7071991 4.10432434 C-5.36120966 -1.26596563 -5.36120966 -1.26596563 0 0 Z " fill="#05F829" transform="translate(147.21337890625,90.7587890625)"/>
<path d="M0 0 C0.25390625 2.265625 0.25390625 2.265625 0 5 C-1.78515625 6.921875 -1.78515625 6.921875 -4.0625 8.75 C-7.1606949 11.58499573 -7.1606949 11.58499573 -8.44921875 15.4453125 C-8.2469737 17.91190901 -8.06039074 19.75829678 -7 22 C-4.36791517 23.78284379 -2.14998853 24.29404304 1 24.3125 C1.66 24.32925781 2.32 24.34601563 3 24.36328125 C5.71727227 23.86971422 7.00484052 22.89975684 9 21 C10.22092065 18.66071733 10.22092065 18.66071733 11.0625 16.0625 C12.29081563 12.56733578 13.51235662 9.78486831 16 7 C16.66 7 17.32 7 18 7 C18.01458252 7.80219971 18.02916504 8.60439941 18.04418945 9.4309082 C18.11856719 13.05859699 18.21526243 16.68535504 18.3125 20.3125 C18.34633789 22.20645508 18.34633789 22.20645508 18.38085938 24.13867188 C18.41630859 25.34716797 18.45175781 26.55566406 18.48828125 27.80078125 C18.51446533 28.91622314 18.54064941 30.03166504 18.56762695 31.1809082 C18.77783341 33.95313046 18.77783341 33.95313046 20.19604492 35.69091797 C22.50451557 37.36611348 24.87885081 38.76198749 27.375 40.14453125 C28.97794922 41.03688477 28.97794922 41.03688477 30.61328125 41.94726562 C31.73089844 42.56279297 32.84851563 43.17832031 34 43.8125 C35.08667969 44.41642578 36.17335937 45.02035156 37.29296875 45.64257812 C43.62639503 49.16141604 43.62639503 49.16141604 50.01293945 52.58227539 C56.30190862 55.8999423 61.5542139 59.58716181 66.85742188 64.29492188 C71.25078946 67.9755763 74.26754513 68.71621511 80 69 C81.01964844 69.05800781 82.03929687 69.11601562 83.08984375 69.17578125 C84.02957031 69.22089844 84.96929687 69.26601563 85.9375 69.3125 C92.94487653 69.86920204 98.22371008 72.18691271 104.0625 76 C106.8475602 77.28621034 106.8475602 77.28621034 109.00390625 76.29296875 C111.12462489 75.2213333 111.12462489 75.2213333 113.0703125 73.98046875 C115 73 115 73 119 73 C119.61875 74.39412109 119.61875 74.39412109 120.25 75.81640625 C123.75672314 83.42715717 126.99025451 89.07149853 134 94 C135.33417109 94.99888202 136.66773087 95.99858263 138 97 C137.9375 98.75 137.9375 98.75 137 101 C134.65948686 102.54473867 132.50350321 103.79123784 130 105 C128.989375 105.495 127.97875 105.99 126.9375 106.5 C104.94660808 115.42455479 87.98874965 110.61024853 66.57421875 103.109375 C62.89561376 101.96760034 59.29263482 101.28041845 55.5 100.625 C48.94806601 99.27931659 45.93237275 97.31580991 42 92 C40.99646484 90.71416016 40.99646484 90.71416016 39.97265625 89.40234375 C37.59917025 86.30304657 35.29333332 83.15860663 33 80 C31.18948863 77.51937739 29.3762016 75.04079073 27.5625 72.5625 C26.87450317 71.62108154 26.87450317 71.62108154 26.17260742 70.66064453 C20.85706431 63.40598681 15.47311444 56.16773732 9.71484375 49.2578125 C8 47 8 47 8 45 C7.484375 44.773125 6.96875 44.54625 6.4375 44.3125 C3.67989192 42.82763411 1.25285866 41.06631494 -1.2734375 39.22265625 C-3.09956136 37.89213404 -3.09956136 37.89213404 -5.5625 36.5 C-10.60498111 33.3969347 -14.18266747 30.71999133 -16 25 C-16.90912162 17.92787948 -16.3233643 11.80240998 -12 6 C-8.51975237 2.14863592 -5.52320126 -1.00421841 0 0 Z " fill="#878787" transform="translate(164,291)"/>
<path d="M0 0 C1.32 0 2.64 0 4 0 C8.15648432 16.42416618 8.85887507 32.96746288 0.26904297 48.03662109 C-4.93817952 56.46851728 -10.43417738 64.87569136 -16.84765625 72.44921875 C-18.66670916 74.60501104 -20.06589213 76.61571233 -21.4375 79.0625 C-28.10551662 89.83391147 -40.02851634 91.68952581 -51.3828125 95.4609375 C-54.3001358 96.4337412 -57.21727768 97.40708566 -60.13427734 98.38085938 C-62.13024968 99.04433687 -64.12765782 99.70351031 -66.12646484 100.35839844 C-69.04956264 101.3175923 -71.9664552 102.29396913 -74.8828125 103.2734375 C-75.76429962 103.55802826 -76.64578674 103.84261902 -77.5539856 104.13583374 C-82.94693732 105.96777467 -87.37763926 108.30625321 -92.02072144 111.61099243 C-93.8815984 112.91690875 -95.75804305 114.03326944 -97.75 115.125 C-101.03165099 116.90932859 -101.03165099 116.90932859 -103.8125 119.25 C-106 121 -106 121 -108 121 C-108.33 121.99 -108.66 122.98 -109 124 C-116.91217084 123.73626097 -123.52553999 121.67965325 -130 117 C-132.43512853 113.8826371 -134.10034529 110.86178313 -135 107 C-134.60546875 104.19140625 -134.60546875 104.19140625 -134 102 C-132.515 101.505 -132.515 101.505 -131 101 C-128.71942295 102.93849049 -127.43914838 104.95067698 -126.0625 107.5625 C-124.8702766 109.68250627 -124.0783563 110.93515341 -122.1875 112.5 C-117.73294594 113.51818378 -113.33601232 112.11252948 -109 111 C-108.71221051 107.29071325 -108.57204649 103.7017979 -109 100 C-111.38270208 97.27691191 -113.47077207 96.25846015 -116.6875 94.6875 C-119.93784509 92.31562655 -120.20386214 89.83593694 -121 86 C-116.10055182 86.48033806 -113.13768517 87.43857584 -109 90 C-103.78261534 92.0059263 -98.38357716 93.51092547 -93 95 C-92.773125 94.46375 -92.54625 93.9275 -92.3125 93.375 C-89.0378371 87.44941952 -84.65370683 83.85456606 -79.328125 79.8515625 C-76.29661308 77.44059496 -73.66009655 74.73969943 -70.95703125 71.97265625 C-64.45397093 65.41767529 -56.90255338 58.63920816 -48.4140625 54.84375 C-44.76936453 52.06009718 -43.96975817 48.50943834 -42.5625 44.25 C-40.09487947 36.81667395 -37.14397874 31.02398449 -30.6875 26.3125 C-28.52153054 24.62785709 -28.439821 23.67676006 -28 21 C-28.12706392 18.66285373 -28.12706392 18.66285373 -28.5 16.3125 C-28.70629588 14.88015017 -28.88297041 13.44238972 -29 12 C-27.29671641 10.29671641 -25.01737379 10.49696116 -22.72900391 10.15014648 C-13.8984413 8.77391614 -6.50502381 6.50502381 0 0 Z " fill="#27E8FE" transform="translate(399,204)"/>
<path d="M0 0 C2.875 1.9375 2.875 1.9375 5 4 C5 5.32 5 6.64 5 8 C3.3125 8.75 3.3125 8.75 1 9 C-0.175625 8.0409375 -0.175625 8.0409375 -1.375 7.0625 C-4.59158197 4.53518559 -6.00199514 4.58354116 -10 5 C-11.67453799 5.291224 -13.34550895 5.61070799 -15 6 C-16.71456352 11.14369056 -16.29059821 15.83760714 -15 21 C-9.06 22.32 -3.12 23.64 3 25 C3 25.99 3 26.98 3 28 C-0.43617708 28.83885377 -3.87414337 29.67012919 -7.3125 30.5 C-8.28896484 30.73847656 -9.26542969 30.97695312 -10.27148438 31.22265625 C-11.20927734 31.44824219 -12.14707031 31.67382812 -13.11328125 31.90625 C-13.97735596 32.11572266 -14.84143066 32.32519531 -15.73168945 32.54101562 C-18 33 -18 33 -21 33 C-22.05391949 36.16175848 -22.1707699 38.53284997 -22.24609375 41.85546875 C-22.27743408 43.02762939 -22.30877441 44.19979004 -22.34106445 45.4074707 C-22.38880005 47.27858521 -22.38880005 47.27858521 -22.4375 49.1875 C-23.62815137 86.83737561 -23.62815137 86.83737561 -32.5 100.8125 C-34.70145453 104.49405847 -34.70145453 104.49405847 -34.59765625 108.65234375 C-33.56731415 111.23791921 -32.3886959 113.5895909 -31 116 C-28.02972322 121.72839094 -27.79792066 125.90792068 -28.1875 132.23046875 C-27.96606341 135.50127172 -27.04972357 136.52495879 -25 139 C-24.3125 141.25 -24.3125 141.25 -24 143 C-24.50789063 143.40089844 -25.01578125 143.80179688 -25.5390625 144.21484375 C-33.96270925 151.1714509 -38.47106462 158.37403466 -41 169 C-45.7734375 168.2421875 -45.7734375 168.2421875 -47.8125 166.0625 C-49 164 -49 164 -49 162 C-49.66 162 -50.32 162 -51 162 C-60.85162162 152.59461908 -63.44755913 142.19382126 -65 129 C-65.09804932 128.18055908 -65.19609863 127.36111816 -65.29711914 126.5168457 C-66.09796105 118.89847025 -66.25298635 111.27381843 -66.29516602 103.62036133 C-66.306737 102.1632317 -66.32726906 100.70614612 -66.35668945 99.24926758 C-66.53378031 90.42737277 -66.21435508 82.98226225 -62 75 C-61.44441406 73.85015625 -60.88882813 72.7003125 -60.31640625 71.515625 C-56.21061772 63.87099425 -51.88361411 56.38973232 -47.4375 48.9375 C-40.62700257 37.47813584 -34.34044017 26.39912993 -30.68359375 13.50244141 C-27.79396067 3.34454958 -27.79396067 3.34454958 -24.09765625 0.57421875 C-23.09025391 0.13529297 -23.09025391 0.13529297 -22.0625 -0.3125 C-21.05896484 -0.77076172 -21.05896484 -0.77076172 -20.03515625 -1.23828125 C-12.89325312 -3.9113544 -6.56357838 -4.08400433 0 0 Z " fill="#F90404" transform="translate(137,182)"/>
<path d="M0 0 C7.84668249 4.51395176 12.31992821 10.67462839 15.1796875 19.25390625 C15.92881833 28.6822528 16.31530768 37.45805944 10.1796875 45.25390625 C3.88826708 51.89848332 -5.39317294 56.81939541 -14.59375 57.44140625 C-23.38253478 56.7923883 -31.57327428 53.56782925 -37.8203125 47.25390625 C-43.15477756 39.79916014 -45.46096016 30.39277057 -44.51171875 21.296875 C-42.47931916 12.27100105 -37.22129995 5.46556585 -29.69140625 0.2265625 C-20.5502216 -4.5253268 -9.25176817 -4.35288109 0 0 Z " fill="#F2F46B" transform="translate(239.8203125,41.74609375)"/>
<path d="M0 0 C6.4381334 5.05256109 10.42631232 11.68380524 11.85546875 19.77734375 C12.39313728 28.95029476 10.11803149 38.09634117 4.35546875 45.26953125 C2.85546875 46.52734375 2.85546875 46.52734375 -0.14453125 46.52734375 C-0.14453125 47.18734375 -0.14453125 47.84734375 -0.14453125 48.52734375 C-10.02534112 53.51225684 -19.09123434 55.43333466 -29.95703125 52.46484375 C-37.91485434 49.34012056 -43.35120816 43.01630779 -47.14453125 35.52734375 C-49.69589634 27.87324847 -48.44448331 16.15346001 -45.08203125 8.83984375 C-41.31762816 2.5658386 -35.68287324 -2.79724179 -28.60546875 -5.03515625 C-17.93508534 -6.9321133 -8.90798019 -6.11713758 0 0 Z " fill="#04F929" transform="translate(92.14453125,153.47265625)"/>
<path d="M0 0 C8.67312666 5.25335356 12.54059671 12.05897791 15.62109375 21.60546875 C17.57749329 29.73997208 15.12331867 36.66597305 11.4375 44 C7.16789345 50.52998648 0.64714839 54.78567835 -6.8125 56.9375 C-26.07083132 57.25847219 -26.07083132 57.25847219 -33.5625 51 C-41.02926007 43.00694848 -43.93954486 34.64795555 -43.765625 23.8359375 C-43.12534712 14.89667327 -39.12261796 8.98340429 -32.5625 3 C-23.48493056 -3.22036726 -10.14650415 -4.62905028 0 0 Z " fill="#888888" transform="translate(330.5625,329)"/>
<path d="M0 0 C6.50505795 5.93065777 10.83565945 11.59087682 11.69140625 20.43359375 C12.01623406 27.95730815 10.86881365 33.7445839 7.3984375 40.40625 C6.8621875 41.47875 6.3259375 42.55125 5.7734375 43.65625 C0.35812952 49.92660661 -7.47248148 53.65622861 -15.64453125 54.65625 C-23.97888125 55.12828398 -31.66433109 52.37512336 -38.0390625 47.03125 C-44.56517207 40.71823789 -48.27332345 33.42551592 -48.703125 24.234375 C-48.03917589 16.33021898 -43.70034852 7.00455268 -37.74609375 1.77734375 C-27.14161162 -6.47942939 -11.15707956 -8.94064798 0 0 Z " fill="#27E8FE" transform="translate(392.6015625,155.59375)"/>
<path d="M0 0 C0.62648437 0.59039062 1.25296875 1.18078125 1.8984375 1.7890625 C2.8265625 2.5934375 3.7546875 3.3978125 4.7109375 4.2265625 C9.73219741 10.10860982 11.41174149 15.01808643 10.8984375 22.7890625 C9.60793033 32.47749696 7.48877066 40.18981204 -0.12109375 46.85546875 C-7.02214449 51.33255933 -15.65832821 53.96497615 -23.88671875 52.38671875 C-24.98306641 52.09087891 -24.98306641 52.09087891 -26.1015625 51.7890625 C-27.00777344 51.56089844 -27.91398437 51.33273437 -28.84765625 51.09765625 C-37.38995548 48.51294427 -41.59194875 44.13905967 -45.9765625 36.5390625 C-49.21161824 25.75554335 -48.56435714 15.4673093 -43.3515625 5.4140625 C-37.36306604 -1.57251671 -31.70706211 -4.8095626 -22.8515625 -7.0234375 C-13.78217121 -7.47690706 -6.90451688 -6.05703105 0 0 Z " fill="#F90404" transform="translate(149.1015625,331.2109375)"/>
<path d="M0 0 C3.09110842 1.48145288 5.96685375 3.18807087 8.875 5 C16.5617086 9.59191458 23.14852589 10.4557346 32 11 C33 14 33 14 32.8125 16.8125 C33.05257303 20.89374151 34.63096368 22.72515567 37 26 C38.33276367 28.28125 38.33276367 28.28125 39 31 C37.8059082 34.05859375 37.8059082 34.05859375 35.80078125 37.4375 C35.44992966 38.04005615 35.09907806 38.6426123 34.7375946 39.26342773 C33.61271863 41.18612131 32.46327246 43.09271681 31.3125 45 C30.55627774 46.28287416 29.80170131 47.56672002 29.04882812 48.8515625 C27.05328166 52.24694612 25.0310805 55.62572914 23 59 C21.99997938 60.6666543 20.99997147 62.33331622 20 64 C14.14205368 61.70098337 11.41745741 55.99523681 8 51 C7.36191406 50.11570313 6.72382812 49.23140625 6.06640625 48.3203125 C-3.23892775 34.83258106 -4.38026467 20.87442376 -2 5 C-0.9453125 1.87890625 -0.9453125 1.87890625 0 0 Z " fill="#04F929" transform="translate(46,201)"/>
<path d="M0 0 C1.258125 0.12375 2.51625 0.2475 3.8125 0.375 C4.87404297 0.47941406 4.87404297 0.47941406 5.95703125 0.5859375 C8 1 8 1 11 3 C13.39388923 2.72197162 13.39388923 2.72197162 16 2 C17.9984471 1.65747947 19.99831024 1.32303131 22 1 C27.02137212 7.07524035 31.9849482 13.19368557 36.875 19.375 C37.5707312 20.24825928 37.5707312 20.24825928 38.28051758 21.13916016 C40.7748371 24.3054653 43.01535148 27.49072082 45 31 C37.90812774 37.28137258 24.14924825 40.05749262 14.8671875 39.69140625 C3.96231042 37.74174641 -10.46367766 34.43816767 -19 27 C-19 25.68 -19 24.36 -19 23 C-17.0234375 21.61328125 -17.0234375 21.61328125 -14.375 20.3125 C-6.16059343 15.69988415 -2.84735125 8.70023992 0 0 Z " fill="#F90404" transform="translate(164,362)"/>
<path d="M0 0 C0.89203125 0.00902344 1.7840625 0.01804688 2.703125 0.02734375 C3.37859375 0.03894531 4.0540625 0.05054688 4.75 0.0625 C4.19832136 3.00478606 3.53108036 5.80940232 2.6875 8.6875 C0.52978325 17.27005989 1.80901704 26.37521091 2.75 35.0625 C1.491875 35.124375 0.23375 35.18625 -1.0625 35.25 C-4.65073025 35.67422826 -4.65073025 35.67422826 -7.125 38.375 C-7.49625 39.261875 -7.8675 40.14875 -8.25 41.0625 C-8.641875 41.825625 -9.03375 42.58875 -9.4375 43.375 C-9.705625 43.931875 -9.97375 44.48875 -10.25 45.0625 C-17.66220341 45.70457622 -24.18565839 43.64012511 -31.1887207 41.43701172 C-33.20143037 40.80814751 -35.22173002 40.21010623 -37.24414062 39.61328125 C-38.5266051 39.21796912 -39.80852868 38.82089694 -41.08984375 38.421875 C-42.82802368 37.88771973 -42.82802368 37.88771973 -44.60131836 37.34277344 C-47.25 36.0625 -47.25 36.0625 -48.30053711 34.17016602 C-48.23258366 31.33614608 -47.3334619 30.21178383 -45.6015625 27.98046875 C-45.00730469 27.21283203 -44.41304687 26.44519531 -43.80078125 25.65429688 C-42.84751953 24.46416992 -42.84751953 24.46416992 -41.875 23.25 C-41.27816406 22.46818359 -40.68132812 21.68636719 -40.06640625 20.88085938 C-33.69445017 12.78401072 -26.7640185 6.95985361 -16.9375 3.6875 C-15.90399414 3.31818359 -15.90399414 3.31818359 -14.84960938 2.94140625 C-9.67956932 1.11668623 -5.47638721 -0.07205773 0 0 Z " fill="#F2F46B" transform="translate(190.25,49.9375)"/>
<path d="M0 0 C2.99663173 13.85942177 0.52434885 28.80798047 -6.1953125 41.2109375 C-10.74730944 48.24584186 -16.55252404 53.74753036 -23 59 C-23.36351562 58.01 -23.72703125 57.02 -24.1015625 56 C-27.99975178 45.65460385 -32.03993636 37.82671515 -41 31 C-40.56022087 28.53723689 -40.13140742 27.15604631 -38.5 25.21875 C-36.63959058 22.4668944 -36.50849896 20.54278254 -36.3125 17.25 C-36.20833333 15.5 -36.10416667 13.75 -36 12 C-28.76075585 9.02872067 -21.45208595 6.32277654 -14.0625 3.75 C-12.52239258 3.20472656 -12.52239258 3.20472656 -10.95117188 2.6484375 C-9.96826172 2.30554688 -8.98535156 1.96265625 -7.97265625 1.609375 C-7.08843994 1.29967773 -6.20422363 0.98998047 -5.29321289 0.67089844 C-3 0 -3 0 0 0 Z " fill="#888888" transform="translate(375,295)"/>
<path d="M0 0 C11.86503596 2.37300719 21.32926791 5.74231046 31 13 C31.79019531 13.54785156 32.58039063 14.09570312 33.39453125 14.66015625 C36.90678531 17.81433943 39.22439624 21.41300164 41.75 25.375 C42.24371094 26.1175 42.73742187 26.86 43.24609375 27.625 C45.90058618 31.74128141 47.65023445 34.99199332 48 40 C46.80503906 40.02578125 45.61007812 40.0515625 44.37890625 40.078125 C30.80661783 40.13587942 30.80661783 40.13587942 19.39453125 46.62890625 C18 48 18 48 16.125 48.0625 C14 47 14 47 11.8125 44.125 C8.60702537 40.04633259 8.60702537 40.04633259 0 38 C0 25.46 0 12.92 0 0 Z " fill="#27E8FE" transform="translate(335,106)"/>
<path d="M0 0 C5.54557307 -0.58949005 8.30665116 1.20144833 12.609375 4.6640625 C17.86879244 9.24919566 20.80435442 12.56741455 22.421875 19.4140625 C22.67324219 20.4453125 22.92460937 21.4765625 23.18359375 22.5390625 C23.734375 25.4140625 23.734375 25.4140625 23.734375 29.4140625 C16.0961239 29.99727872 9.71409066 27.84777833 2.484375 25.5390625 C-5.32108347 23.06544016 -12.75876608 20.95941331 -20.92260742 20.09106445 C-23.265625 19.4140625 -23.265625 19.4140625 -24.60058594 17.51416016 C-25.328125 15.4765625 -25.328125 15.4765625 -25.73828125 13.38671875 C-26.38069288 10.98362338 -27.53150327 10.1387852 -29.265625 8.4140625 C-29.265625 7.4240625 -29.265625 6.4340625 -29.265625 5.4140625 C-26.07878072 4.7649657 -22.89103905 4.12038302 -19.703125 3.4765625 C-18.80787109 3.29416016 -17.91261719 3.11175781 -16.99023438 2.92382812 C-11.34452234 1.78641361 -5.65837154 1.03411618 0 0 Z " fill="#27E8FE" transform="translate(268.265625,103.5859375)"/>
<path d="M0 0 C0.74958984 0.05220703 1.49917969 0.10441406 2.27148438 0.15820312 C4.11887082 0.28763784 5.96574371 0.42436518 7.8125 0.5625 C9.16538752 4.62116257 8.0112634 6.14821548 6.24609375 9.8984375 C1.61108072 18.51173146 -4.23384717 27.60884717 -11.1875 34.5625 C-11.1875 37.2025 -11.1875 39.8425 -11.1875 42.5625 C-19.6025 43.0575 -19.6025 43.0575 -28.1875 43.5625 C-28.1875 38.22864554 -28.10422345 34.54998844 -27.1875 29.5625 C-27.0220479 28.17569205 -26.86793643 26.7875035 -26.72265625 25.3984375 C-26.64466797 24.66882813 -26.56667969 23.93921875 -26.48632812 23.1875 C-26.32800628 21.68017131 -26.17440428 20.17233983 -26.02539062 18.6640625 C-25.23780846 11.44135777 -25.23780846 11.44135777 -23.1875 8.5625 C-21.47821457 7.53047861 -19.76322992 6.50371033 -17.99609375 5.57421875 C-15.50372786 4.18000111 -13.40689339 2.35034468 -11.1875 0.5625 C-7.35939179 -0.71353607 -3.95274893 -0.30033987 0 0 Z " fill="#F2F36B" transform="translate(145.1875,132.4375)"/>
<path d="M0 0 C1.32 0 2.64 0 4 0 C6.03312301 3.72440361 8.0443242 7.45959084 10.03637695 11.20605469 C10.71639737 12.47775598 11.4022144 13.74637582 12.09399414 15.01171875 C13.08995971 16.83586303 14.06424624 18.67023613 15.03515625 20.5078125 C15.6269165 21.60754395 16.21867676 22.70727539 16.82836914 23.84033203 C19.06965653 29.8846624 16.34588231 35.34495037 14 41 C13.566875 42.051875 13.13375 43.10375 12.6875 44.1875 C9.78693606 49.02177323 5.10605051 52.6433613 0 55 C-2.8125 54.6875 -2.8125 54.6875 -5 54 C-6.35482378 45.37839414 -6.31898433 36.66470952 -6.47680664 27.95605469 C-6.51636218 25.86884838 -6.56786385 23.78220849 -6.62109375 21.6953125 C-6.6461499 20.45797363 -6.67120605 19.22063477 -6.69702148 17.94580078 C-6.69923266 14.88006654 -6.69923266 14.88006654 -9 13 C-8.9375 10.625 -8.9375 10.625 -8 8 C-5.5 5.8125 -5.5 5.8125 -3 4 C-2.67 3.34 -2.34 2.68 -2 2 C-1.34 2 -0.68 2 0 2 C0 1.34 0 0.68 0 0 Z " fill="#878787" transform="translate(339,206)"/>
<path d="M0 0 C4.22153948 3.09376359 7.22567481 6.51209611 10.375 10.625 C10.85541748 11.24020508 11.33583496 11.85541016 11.83081055 12.48925781 C15.22728009 16.87496265 18.35331332 21.38713471 21.26953125 26.109375 C23.55098506 28.60197916 25.77925289 29.15550843 29 30 C28.85805236 32.06277107 28.71127784 34.12521031 28.5625 36.1875 C28.48128906 37.33605469 28.40007812 38.48460937 28.31640625 39.66796875 C28.04596188 42.51598171 27.62478253 45.21210482 27 48 C19.78568277 45.23381671 12.86013142 42.04473307 6 38.5 C5.27047119 38.13269775 4.54094238 37.76539551 3.78930664 37.38696289 C-0.47431619 35.14396744 -3.23233641 33.06772833 -6 29 C-6.598125 28.195625 -7.19625 27.39125 -7.8125 26.5625 C-9.57968441 22.74910207 -8.64763549 19.83681514 -7.27270508 15.93725586 C-6.38304081 13.67135693 -5.45129179 11.42819332 -4.5 9.1875 C-4.01853516 8.02444336 -4.01853516 8.02444336 -3.52734375 6.83789062 C-1.14773261 1.14773261 -1.14773261 1.14773261 0 0 Z " fill="#04F929" transform="translate(116,267)"/>
<path d="M0 0 C1.625 1.5 1.625 1.5 3 3 C3.99 3.33 4.98 3.66 6 4 C6.46237052 6.64211724 6.34883074 8.41943084 4.95556641 10.73828125 C3.46242591 12.71045152 1.90855592 14.61017997 0.3125 16.5 C-0.21794922 17.15097656 -0.74839844 17.80195313 -1.29492188 18.47265625 C-4.35362733 22.18813895 -7.53900463 25.65748916 -11 29 C-11.33 29.33 -11.66 29.66 -12 30 C-29.12428334 31.08126899 -29.12428334 31.08126899 -35.0390625 26.37890625 C-36.83751905 24.65568394 -38.49944608 22.98823394 -40 21 C-40 20.34 -40 19.68 -40 19 C-38.89140625 18.38511719 -37.7828125 17.77023437 -36.640625 17.13671875 C-35.17699811 16.32046529 -33.71346116 15.50405056 -32.25 14.6875 C-31.52039063 14.28337891 -30.79078125 13.87925781 -30.0390625 13.46289062 C-27.11320596 11.82707083 -24.33171921 10.25546832 -21.671875 8.20703125 C-20 7 -20 7 -17 7 C-17 6.34 -17 5.68 -17 5 C-15.11351956 3.96198445 -13.21536344 2.94516833 -11.3125 1.9375 C-10.25675781 1.36902344 -9.20101563 0.80054688 -8.11328125 0.21484375 C-4.75184758 -1.09683238 -3.35630065 -1.18213067 0 0 Z " fill="#F90404" transform="translate(269,326)"/>
<path d="M0 0 C2.375 1.4375 2.375 1.4375 4 4 C4.49269345 7.06687831 4.62344409 9.95017891 4 13 C1.95865888 15.6652525 0.9876196 16.003439 -2.375 16.9375 C-6 17 -6 17 -9 15.6875 C-11.70591599 12.05142538 -11.25228754 9.71508748 -10.78515625 5.33984375 C-9.04447906 0.15245253 -5.04431554 -0.73562935 0 0 Z " fill="#F2F46B" transform="translate(229,119)"/>
<path d="M0 0 C2.4375 1.125 2.4375 1.125 4 3 C4.625 6.375 4.625 6.375 4 10 C1.4375 13 1.4375 13 -2 15 C-5.5469368 15 -7.83111944 14.64099902 -10.9375 12.9375 C-12.67884819 9.76210035 -12.55995469 6.5291881 -12 3 C-8.69582622 -1.65588124 -5.26055827 -1.08839137 0 0 Z " fill="#04F929" transform="translate(134,189)"/>
<path d="M0 0 C2.4375 1.1875 2.4375 1.1875 4 3 C4.64600202 6.71451163 4.24457036 8.53124015 2.5 11.875 C-0.54168979 14.46043632 -2.20007233 14.69010681 -6.09375 14.4140625 C-8 14 -8 14 -10.5 12.4375 C-12.60020266 9.02467068 -12.63210717 6.93311127 -12 3 C-8.30190624 -1.48253789 -5.42977433 -1.48084754 0 0 Z " fill="#27E8FF" transform="translate(322,192)"/>
<path d="M0 0 C0 0.66 0 1.32 0 2 C0.804375 2.309375 1.60875 2.61875 2.4375 2.9375 C5 4 5 4 6 5 C6.54481003 8.90447188 6.1685881 11.2911676 3.875 14.4375 C1 17 1 17 -2.125 16.9375 C-4.08548011 16.29821301 -6.04374002 15.65208666 -8 15 C-9.79009505 11.41980989 -9.46638897 7.43803267 -8.25 3.6875 C-5.96586468 0.60391732 -3.75404317 0 0 0 Z " fill="#888888" transform="translate(283,300)"/>
<path d="M0 0 C1.6875 1.875 1.6875 1.875 2.1875 5.3125 C1.6875 8.875 1.6875 8.875 0.0625 11.3125 C-3.02935231 13.34661336 -4.67617425 13.48105429 -8.3125 12.875 C-10.96609262 10.93859458 -12.0734947 9.49641377 -13.25 6.4375 C-13.33240525 3.0588849 -12.36611965 1.51536813 -10.3125 -1.125 C-6.23571137 -2.48392954 -3.81983993 -1.8583005 0 0 Z " fill="#F80504" transform="translate(170.3125,301.125)"/>
</svg>
